<svg width="920" height="682" viewBox="0 0 920 682" fill="none" xmlns="http://www.w3.org/2000/svg">
<g clip-path="url(#clip0_11_42)">
<path opacity="0.1" d="M421.889 602.181C632.734 602.181 803.657 589.377 803.657 573.583C803.657 557.788 632.734 544.984 421.889 544.984C211.044 544.984 40.121 557.788 40.121 573.583C40.121 589.377 211.044 602.181 421.889 602.181Z" fill="#6C63FF"/>
<g opacity="0.1">
<path d="M760.019 410.624C757.737 403.942 748.485 400.866 739.359 403.76C738.044 404.174 736.771 404.705 735.559 405.346C734.975 405.19 734.373 405.052 733.762 404.948C734.261 403.026 734.452 401.041 734.328 399.063C737.476 397.032 740.03 394.253 741.745 390.995C743.459 387.737 744.277 384.108 744.119 380.457C747.259 378.419 749.804 375.639 751.512 372.381C753.22 369.124 754.034 365.498 753.875 361.851C757.038 359.839 759.59 357.052 761.268 353.774C765.669 345.368 763.846 335.922 757.189 332.672C750.533 329.422 741.559 333.608 737.158 342.014C735.413 345.258 734.597 348.893 734.795 352.543C731.656 354.581 729.11 357.361 727.402 360.619C725.694 363.877 724.881 367.502 725.04 371.15C721.9 373.187 719.355 375.968 717.647 379.225C715.939 382.483 715.126 386.109 715.285 389.756C712.138 391.791 709.585 394.571 707.871 397.83C706.156 401.09 705.338 404.719 705.493 408.371C702.33 410.382 699.778 413.17 698.101 416.448C697.273 418.028 696.646 419.698 696.232 421.422C695.129 419.866 693.784 418.484 692.244 417.323C692.068 415.999 691.767 414.694 691.346 413.423C688.345 404.61 680.297 399.237 673.38 401.438C666.463 403.639 663.265 412.557 666.266 421.37C667.494 425.149 669.857 428.491 673.057 430.972C673.233 432.296 673.533 433.601 673.955 434.872C675.698 439.985 679.138 443.937 683.072 445.921C682.724 447.025 682.475 448.156 682.327 449.301C678.617 452.744 676.229 457.299 675.554 462.222C671.841 465.666 669.453 470.226 668.781 475.152C666.943 476.855 665.423 478.852 664.289 481.054C659.879 489.46 661.702 498.915 668.359 502.156C675.015 505.397 683.989 501.229 688.399 492.814C689.562 490.62 690.322 488.248 690.645 485.803C694.355 482.361 696.743 477.805 697.418 472.882C701.131 469.438 703.519 464.878 704.191 459.952C707.876 456.501 710.235 451.945 710.883 447.031C714.61 443.587 717.005 439.019 717.674 434.083C718.817 433.038 719.838 431.876 720.719 430.617C724.389 431.344 728.194 431.113 731.741 429.95C733.056 429.536 734.328 429.005 735.541 428.364C739.514 429.375 743.708 429.23 747.596 427.948C756.695 425.079 762.292 417.314 760.019 410.624Z" fill="#3F3D56"/>
<g opacity="0.1">
<path d="M743.913 384.279C742.97 385.173 741.935 385.972 740.823 386.662C740.964 389.136 740.626 391.613 739.826 393.968C740.533 393.025 741.163 392.031 741.712 390.995C742.826 388.889 743.57 386.62 743.913 384.279Z" fill="black"/>
<path d="M753.668 365.673C752.725 366.567 751.69 367.366 750.578 368.056C750.719 370.53 750.381 373.007 749.581 375.361C750.29 374.417 750.921 373.42 751.467 372.38C752.577 370.276 753.321 368.01 753.668 365.673Z" fill="black"/>
<path d="M731.544 358.748C731.461 357.473 731.512 356.192 731.696 354.927C729.952 356.585 728.501 358.509 727.403 360.62C726.86 361.661 726.404 362.742 726.037 363.853C727.524 361.833 729.392 360.101 731.544 358.748Z" fill="black"/>
<path d="M669.625 471.348C670.41 470.292 671.297 469.312 672.275 468.419C672.428 467.243 672.69 466.083 673.057 464.952C672.276 465.964 671.587 467.04 671 468.167C670.457 469.191 669.997 470.255 669.625 471.348Z" fill="black"/>
<path d="M676.398 458.435C677.183 457.38 678.07 456.399 679.048 455.506C679.195 454.361 679.444 453.23 679.794 452.126C679.048 453.109 678.387 454.15 677.817 455.237C677.262 456.268 676.788 457.336 676.398 458.435Z" fill="black"/>
<path d="M734.148 402.885C733.211 403.779 732.178 404.575 731.067 405.26C731.19 407.238 731 409.222 730.501 411.144C731.107 411.245 731.707 411.378 732.298 411.543C733.511 410.901 734.783 410.37 736.098 409.957C745.242 407.062 754.485 410.139 756.758 416.82C757.322 418.5 757.421 420.292 757.046 422.02C760.055 418.606 761.303 414.446 760.01 410.633C757.728 403.951 748.476 400.875 739.349 403.769C738.035 404.183 736.762 404.714 735.55 405.355C734.966 405.199 734.364 405.06 733.753 404.956C733.924 404.263 734.05 403.578 734.148 402.885Z" fill="black"/>
<path d="M666.284 477.839C665.503 478.851 664.814 479.927 664.227 481.054C663.681 482.099 663.218 483.182 662.843 484.295C663.645 483.235 664.547 482.248 665.538 481.349C665.677 480.159 665.926 478.985 666.284 477.839Z" fill="black"/>
<path d="M721.743 377.355C721.661 376.079 721.712 374.798 721.896 373.533C720.152 375.191 718.701 377.115 717.602 379.226C717.06 380.268 716.603 381.348 716.237 382.459C717.724 380.439 719.592 378.707 721.743 377.355Z" fill="black"/>
<path d="M707.649 453.236C707.472 454.525 707.171 455.796 706.751 457.031C707.454 456.085 708.081 455.088 708.628 454.05C709.217 452.937 709.707 451.777 710.093 450.584C709.357 451.533 708.54 452.42 707.649 453.236Z" fill="black"/>
<path d="M694.103 479.078C693.927 480.368 693.626 481.638 693.205 482.874C693.914 481.929 694.545 480.933 695.091 479.893C695.677 478.778 696.166 477.618 696.556 476.426C695.82 477.377 694.999 478.265 694.103 479.078Z" fill="black"/>
<path d="M700.876 466.148C700.7 467.438 700.399 468.708 699.978 469.944C700.694 469.015 701.336 468.036 701.9 467.015C702.489 465.901 702.979 464.742 703.365 463.548C702.612 464.481 701.78 465.351 700.876 466.148Z" fill="black"/>
<path d="M714.422 440.314C714.246 441.601 713.945 442.869 713.524 444.101C714.229 443.159 714.857 442.165 715.402 441.129C715.997 439.996 716.49 438.816 716.875 437.602C716.143 438.575 715.322 439.483 714.422 440.314Z" fill="black"/>
<path d="M670.074 407.634C677.009 405.442 685.058 410.806 688.04 419.62C688.461 420.894 688.761 422.202 688.938 423.528C690.478 424.689 691.823 426.071 692.927 427.627C693.34 425.9 693.968 424.227 694.795 422.644C695.11 422.055 695.451 421.491 695.801 420.911C694.782 419.55 693.573 418.331 692.208 417.288C692.032 415.965 691.731 414.659 691.31 413.389C688.31 404.575 680.261 399.202 673.344 401.403C669.392 402.651 666.661 406.092 665.601 410.442C666.817 409.15 668.358 408.183 670.074 407.634Z" fill="black"/>
<path d="M702.233 414.567C702.153 413.294 702.208 412.016 702.394 410.754C700.644 412.41 699.191 414.334 698.092 416.448C697.548 417.485 697.091 418.563 696.726 419.671C698.217 417.655 700.084 415.924 702.233 414.567Z" fill="black"/>
<path d="M711.988 395.952C711.909 394.679 711.963 393.402 712.15 392.139C710.398 393.79 708.944 395.712 707.847 397.824C707.305 398.865 706.848 399.946 706.481 401.057C707.968 399.037 709.836 397.305 711.988 395.952Z" fill="black"/>
<path d="M687.33 491.999C687.154 493.292 686.853 494.565 686.432 495.804C687.909 493.831 689.04 491.638 689.783 489.313C689.048 490.276 688.228 491.175 687.33 491.999Z" fill="black"/>
</g>
<path d="M773.332 324.638C776.498 322.629 779.05 319.841 780.724 316.561C785.135 308.155 783.311 298.7 776.655 295.45C769.999 292.201 761.025 296.386 756.615 304.801C754.868 308.054 754.055 311.699 754.261 315.357C751.122 317.394 748.576 320.175 746.868 323.432C745.16 326.69 744.347 330.316 744.506 333.963C741.338 335.97 738.785 338.759 737.113 342.04C736.572 343.069 736.119 344.138 735.757 345.238C738.102 341.962 741.503 339.524 745.431 338.305C745.878 339.64 746.595 340.876 747.541 341.941C748.487 343.007 749.642 343.881 750.941 344.513C752.239 345.145 753.654 345.522 755.105 345.623C756.555 345.723 758.012 345.545 759.39 345.099C760.717 348.867 760.717 352.952 759.39 356.72C760.092 355.787 760.717 354.802 761.259 353.774C763.001 350.529 763.814 346.894 763.612 343.244C766.755 341.21 769.304 338.431 771.012 335.172C772.72 331.914 773.532 328.286 773.367 324.638H773.332Z" fill="#3F3D56"/>
<path d="M880.55 205.357C883.258 204.138 885.875 202.739 888.383 201.171L859.342 180.702L893.476 197.661C900.382 192.369 906.095 185.772 910.265 178.275C914.435 170.779 916.976 162.539 917.73 154.062L859.719 154.634L917.855 145.257C917.254 136.771 914.861 128.494 910.824 120.933C906.786 113.372 901.188 106.688 894.375 101.29C887.562 95.8923 879.677 91.8954 871.204 89.5449C862.731 87.1943 853.85 86.5397 845.105 87.6213C836.361 88.7029 827.938 91.4979 820.354 95.8345C812.77 100.171 806.185 105.958 801.003 112.839C795.822 119.721 792.153 127.551 790.223 135.85C788.293 144.149 788.142 152.741 789.779 161.099C785.562 162.99 781.569 165.315 777.868 168.032L808.185 208.702L771.786 173.101C764.105 180.379 758.425 189.389 755.262 199.317C752.098 209.245 751.55 219.777 753.668 229.96C742.673 234.912 733.343 242.747 726.745 252.572C720.147 262.396 716.546 273.813 716.355 285.519C716.164 297.224 719.39 308.745 725.664 318.765C731.939 328.785 741.008 336.9 751.837 342.183C762.665 347.465 774.816 349.703 786.9 348.639C798.984 347.576 810.514 343.254 820.173 336.168C829.831 329.081 837.229 319.517 841.52 308.567C845.811 297.617 846.823 285.723 844.439 274.244C857.597 268.336 868.312 258.33 874.862 245.835C881.412 233.34 883.415 219.083 880.55 205.357Z" fill="#A6A6A6"/>
<path opacity="0.1" d="M759.39 189.481C752.819 201.969 750.809 216.232 753.686 229.96C742.691 234.912 733.361 242.747 726.763 252.572C720.165 262.396 716.564 273.814 716.373 285.519C716.182 297.224 719.408 308.745 725.683 318.765C731.957 328.785 741.026 336.9 751.855 342.183C762.683 347.466 774.834 349.703 786.918 348.639C799.002 347.576 810.532 343.254 820.191 336.168C829.849 329.082 837.247 319.517 841.538 308.567C845.829 297.617 846.841 285.723 844.457 274.245C857.15 268.56 762.642 183.232 759.39 189.481Z" fill="black"/>
<path d="M832.276 99.1357C837.58 99.1357 841.879 94.988 841.879 89.8716C841.879 84.7551 837.58 80.6074 832.276 80.6074C826.973 80.6074 822.674 84.7551 822.674 89.8716C822.674 94.988 826.973 99.1357 832.276 99.1357Z" fill="#A6A6A6"/>
<path d="M888.365 105.081C893.668 105.081 897.968 100.933 897.968 95.8166C897.968 90.7002 893.668 86.5525 888.365 86.5525C883.062 86.5525 878.762 90.7002 878.762 95.8166C878.762 100.933 883.062 105.081 888.365 105.081Z" fill="#A6A6A6"/>
<path d="M909.995 188.328C915.299 188.328 919.598 184.18 919.598 179.064C919.598 173.948 915.299 169.8 909.995 169.8C904.692 169.8 900.393 173.948 900.393 179.064C900.393 184.18 904.692 188.328 909.995 188.328Z" fill="#A6A6A6"/>
<path d="M880.802 229.9C886.105 229.9 890.404 225.752 890.404 220.635C890.404 215.519 886.105 211.371 880.802 211.371C875.498 211.371 871.199 215.519 871.199 220.635C871.199 225.752 875.498 229.9 880.802 229.9Z" fill="#A6A6A6"/>
<path d="M840.918 316.241C846.221 316.241 850.52 312.093 850.52 306.977C850.52 301.86 846.221 297.712 840.918 297.712C835.614 297.712 831.315 301.86 831.315 306.977C831.315 312.093 835.614 316.241 840.918 316.241Z" fill="#6C63FF"/>
<path opacity="0.1" d="M840.918 316.241C846.221 316.241 850.52 312.093 850.52 306.977C850.52 301.86 846.221 297.712 840.918 297.712C835.614 297.712 831.315 301.86 831.315 306.977C831.315 312.093 835.614 316.241 840.918 316.241Z" fill="#A6A6A6"/>
<path d="M752.24 218.452C757.543 218.452 761.842 214.304 761.842 209.187C761.842 204.071 757.543 199.923 752.24 199.923C746.936 199.923 742.637 204.071 742.637 209.187C742.637 214.304 746.936 218.452 752.24 218.452Z" fill="#6C63FF"/>
<path opacity="0.1" d="M752.24 218.452C757.543 218.452 761.842 214.304 761.842 209.187C761.842 204.071 757.543 199.923 752.24 199.923C746.936 199.923 742.637 204.071 742.637 209.187C742.637 214.304 746.936 218.452 752.24 218.452Z" fill="black"/>
<path opacity="0.1" d="M742 361.565C735.613 358.454 733.681 349.64 737.409 341.511C737.212 341.841 737.023 342.179 736.843 342.534C732.433 350.94 734.256 360.386 740.913 363.636C747.569 366.886 756.543 362.7 760.944 354.294C761.133 353.947 761.294 353.592 761.456 353.245C756.884 360.967 748.377 364.685 742 361.565Z" fill="black"/>
<path opacity="0.1" d="M732.514 379.66C726.136 376.549 724.196 367.735 727.932 359.598C727.735 359.936 727.537 360.274 727.358 360.62C722.947 369.026 724.77 378.481 731.427 381.722C738.083 384.964 747.057 380.795 751.467 372.38C751.647 372.034 751.818 371.687 751.979 371.332C747.398 379.053 738.9 382.771 732.514 379.66Z" fill="black"/>
<path opacity="0.1" d="M723.028 397.746C716.65 394.635 714.71 385.821 718.447 377.693C718.249 378.022 718.052 378.36 717.872 378.715C713.461 387.121 715.294 396.568 721.95 399.817C728.606 403.067 737.571 398.881 741.982 390.475C742.161 390.129 742.332 389.773 742.494 389.427C737.921 397.148 729.415 400.866 723.028 397.746Z" fill="black"/>
<path opacity="0.1" d="M713.578 415.884C707.191 412.773 705.26 403.96 708.988 395.831C708.79 396.16 708.601 396.498 708.413 396.845C704.011 405.251 705.835 414.706 712.491 417.956C719.147 421.205 728.121 417.02 732.523 408.605C732.711 408.258 732.873 407.911 733.035 407.556C728.435 415.234 719.929 418.952 713.578 415.884Z" fill="black"/>
<path opacity="0.1" d="M704.065 433.927C697.678 430.816 695.747 422.003 699.475 413.874C699.277 414.203 699.089 414.541 698.909 414.896C694.499 423.303 696.322 432.749 702.978 435.999C709.635 439.248 718.608 435.063 723.019 426.656C723.199 426.31 723.369 425.954 723.531 425.608C718.968 433.329 710.443 437.047 704.065 433.927Z" fill="black"/>
<path opacity="0.1" d="M694.579 452.022C688.202 448.911 686.261 440.098 689.998 431.969C689.801 432.298 689.603 432.636 689.423 432.983C685.013 441.389 686.836 450.844 693.501 454.094C700.167 457.343 709.087 453.149 713.578 444.743C713.758 444.396 713.928 444.049 714.09 443.694C709.464 451.416 701.002 455.133 694.579 452.022Z" fill="black"/>
<path opacity="0.1" d="M685.094 470.109C678.716 466.998 676.776 458.184 680.512 450.055C680.315 450.393 680.126 450.722 679.937 451.078C675.536 459.484 677.359 468.93 684.016 472.18C690.672 475.43 699.646 471.244 704.047 462.838C704.236 462.491 704.398 462.136 704.559 461.789C699.987 469.511 691.48 473.229 685.094 470.109Z" fill="black"/>
<path opacity="0.1" d="M675.617 488.204C669.23 485.093 667.299 476.279 671.026 468.15C670.829 468.479 670.64 468.817 670.461 469.164C666.05 477.57 667.874 487.025 674.53 490.275C681.186 493.525 690.16 489.339 694.57 480.924C694.75 480.577 694.912 480.231 695.073 479.876C690.501 487.597 681.994 491.28 675.617 488.204Z" fill="black"/>
<path opacity="0.1" d="M669.383 500.094C663.005 496.974 661.065 488.169 664.802 480.031C664.604 480.369 664.406 480.707 664.227 481.054C659.816 489.46 661.64 498.915 668.296 502.156C674.952 505.397 683.926 501.229 688.336 492.814C688.516 492.467 688.687 492.121 688.848 491.765C684.267 499.487 675.761 503.205 669.383 500.094Z" fill="black"/>
<path d="M840.765 419.576C841.755 416.838 842.359 413.985 842.562 411.092C843.221 411.09 843.874 410.958 844.478 410.702C845.082 410.446 845.625 410.073 846.073 409.606C846.521 409.138 846.864 408.587 847.081 407.986C847.298 407.385 847.384 406.747 847.334 406.112C847.284 405.478 847.099 404.86 846.79 404.297C846.481 403.735 846.055 403.24 845.539 402.844C845.022 402.447 844.427 402.158 843.79 401.993C843.152 401.829 842.486 401.793 841.834 401.888C840.766 397.198 838.629 392.796 835.577 389.002C832.526 385.208 828.636 382.117 824.192 379.954C824.766 378.858 824.865 377.587 824.468 376.42C824.07 375.253 823.208 374.286 822.072 373.732C820.936 373.178 819.618 373.082 818.408 373.466C817.199 373.85 816.196 374.681 815.622 375.777C815.414 376.167 815.269 376.585 815.191 377.017C809.921 376.069 804.492 376.35 799.356 377.834C794.221 379.319 789.527 381.965 785.665 385.553C782.748 385.097 779.783 385.013 776.844 385.301L772.954 402.382L772.721 385.917C768.256 386.861 764.038 388.673 760.325 391.243C756.611 393.813 753.48 397.087 751.122 400.864C748.765 404.641 747.23 408.843 746.613 413.211C745.995 417.58 746.307 422.024 747.53 426.273C748.754 430.521 750.862 434.484 753.727 437.92C756.591 441.355 760.152 444.191 764.191 446.254C768.23 448.317 772.663 449.564 777.219 449.918C781.774 450.272 786.357 449.726 790.686 448.313C791.149 449.119 791.854 449.772 792.707 450.185C793.587 450.616 794.583 450.775 795.56 450.64C796.536 450.505 797.446 450.083 798.165 449.431C798.884 448.779 799.377 447.929 799.577 446.997C799.777 446.065 799.674 445.096 799.283 444.223C800.815 443.208 802.257 442.071 803.594 440.826C810.607 441.926 817.801 440.855 824.144 437.768C830.488 434.681 835.655 429.735 838.906 423.641L820.805 420.703L840.765 419.576Z" fill="#A6A6A6"/>
<g opacity="0.1">
<path d="M812.802 427.87C806.119 419.359 802.022 409.281 797.306 399.609C795.413 395.64 793.293 391.774 790.956 388.031L787.416 384.053C786.824 384.539 786.231 385.041 785.62 385.57C782.704 385.115 779.738 385.03 776.799 385.319L772.909 402.4L772.676 385.934C768.211 386.878 763.994 388.691 760.28 391.261C756.566 393.831 753.435 397.104 751.077 400.881C748.72 404.659 747.185 408.86 746.568 413.229C745.95 417.597 746.262 422.042 747.486 426.29C748.709 430.538 750.817 434.502 753.682 437.937C756.546 441.373 760.107 444.209 764.146 446.271C768.185 448.334 772.618 449.581 777.174 449.935C781.729 450.289 786.312 449.743 790.641 448.33C791.104 449.137 791.809 449.789 792.662 450.202C793.542 450.633 794.538 450.792 795.515 450.657C796.491 450.523 797.401 450.1 798.12 449.449C798.839 448.797 799.332 447.947 799.532 447.015C799.732 446.083 799.629 445.114 799.238 444.24C800.77 443.225 802.212 442.089 803.549 440.843C810.415 441.915 817.457 440.91 823.707 437.966C819.535 435.185 815.853 431.777 812.802 427.87Z" fill="black"/>
</g>
<path d="M694.454 391.298C694.824 390.592 695 389.806 694.966 389.015C694.931 388.224 694.687 387.454 694.256 386.781C693.825 386.107 693.222 385.551 692.505 385.166C691.788 384.781 690.98 384.58 690.16 384.582C688.798 377.618 685.106 371.276 679.65 366.531C680.529 363.222 680.863 359.8 680.638 356.391L662.987 353.488L680.126 352.448C679.818 350.895 679.395 349.366 678.859 347.872C679.527 347.429 680.07 346.834 680.44 346.139C680.873 345.311 681.038 344.376 680.914 343.456C680.79 342.537 680.383 341.674 679.746 340.98C679.108 340.285 678.27 339.792 677.338 339.562C676.407 339.332 675.425 339.377 674.521 339.691C669.982 333.503 663.339 329.045 655.746 327.091C648.154 325.137 640.092 325.811 632.961 328.996C625.831 332.181 620.082 337.675 616.714 344.524C613.346 351.373 612.571 359.144 614.525 366.487C613.485 366.91 612.638 367.679 612.135 368.654C611.695 369.493 611.53 370.442 611.662 371.374C611.795 372.306 612.219 373.177 612.877 373.871C613.536 374.564 614.398 375.048 615.349 375.257C616.299 375.466 617.294 375.391 618.199 375.041C619.922 377.832 622.068 380.359 624.568 382.537C622.748 389.381 623.297 396.612 626.131 403.128L649.8 397.2L628.691 407.911C632.423 413.633 637.916 418.087 644.401 420.649C650.886 423.211 658.039 423.754 664.859 422.201C671.679 420.649 677.826 417.078 682.44 411.99C687.054 406.901 689.904 400.548 690.591 393.82C691.404 393.752 692.186 393.485 692.862 393.044C693.538 392.602 694.086 392.002 694.454 391.298Z" fill="#6C63FF"/>
<path opacity="0.1" d="M694.454 391.299C694.824 390.592 695 389.806 694.966 389.015C694.931 388.224 694.687 387.454 694.256 386.781C693.825 386.107 693.222 385.551 692.505 385.166C691.788 384.781 690.98 384.58 690.16 384.582C688.798 377.618 685.106 371.276 679.65 366.531C679.794 365.985 679.919 365.447 680.027 364.901C679.401 365.339 678.82 365.836 678.293 366.383C675.105 369.754 673.47 374.287 670.317 377.693C666.598 381.714 661.029 383.811 655.468 384.374C649.908 384.938 644.312 384.114 638.823 383.083C634.278 382.216 629.67 381.211 625.062 381.636C624.612 381.636 624.163 381.731 623.75 381.8C624.02 382.052 624.289 382.303 624.567 382.546C622.748 389.39 623.297 396.621 626.131 403.137L649.8 397.2L628.691 407.912C632.423 413.633 637.916 418.087 644.401 420.649C650.886 423.211 658.039 423.754 664.859 422.201C671.679 420.649 677.826 417.078 682.44 411.99C687.054 406.901 689.903 400.548 690.591 393.82C691.404 393.753 692.186 393.485 692.862 393.044C693.538 392.602 694.086 392.002 694.454 391.299Z" fill="black"/>
</g>
<g opacity="0.1">
<path d="M81.316 443.902C82.4658 440.531 87.1278 438.98 91.727 440.436C92.3885 440.645 93.0289 440.912 93.6403 441.233C93.9368 441.155 94.2422 441.086 94.5386 441.034C94.2862 440.066 94.1893 439.066 94.2512 438.07C92.6724 437.04 91.3924 435.638 90.5325 433.997C89.6726 432.356 89.2613 430.53 89.3376 428.693C87.745 427.682 86.4611 426.279 85.6187 424.629C84.7409 422.994 84.3286 421.164 84.424 419.325C82.8325 418.309 81.5492 416.903 80.7051 415.252C78.4954 411.023 79.3936 406.265 82.7622 404.618C86.1307 402.972 90.6401 405.095 92.8588 409.324C93.7351 410.962 94.1443 412.796 94.0446 414.637C95.6276 415.66 96.911 417.06 97.7715 418.701C98.632 420.341 99.0406 422.168 98.9581 424.005C100.541 425.031 101.823 426.432 102.684 428.074C103.544 429.716 103.953 431.543 103.872 433.381C105.455 434.405 106.738 435.805 107.599 437.445C108.459 439.086 108.868 440.913 108.785 442.75C110.38 443.765 111.667 445.17 112.513 446.823C112.917 447.622 113.219 448.466 113.411 449.336C113.965 448.55 114.64 447.852 115.415 447.265C115.507 446.596 115.663 445.938 115.882 445.297C117.4 440.86 121.451 438.157 124.945 439.231C128.44 440.306 130.039 444.838 128.538 449.275C127.918 451.181 126.728 452.866 125.116 454.12C125.023 454.785 124.866 455.44 124.649 456.078C123.912 458.43 122.269 460.421 120.059 461.642C120.232 462.209 120.358 462.789 120.436 463.375C121.363 464.234 122.132 465.239 122.709 466.348C123.296 467.454 123.679 468.65 123.84 469.883C124.771 470.741 125.543 471.747 126.122 472.856C126.709 473.962 127.092 475.159 127.254 476.392C128.187 477.251 128.959 478.26 129.536 479.373C131.754 483.602 130.838 488.368 127.487 489.998C124.137 491.627 119.61 489.53 117.391 485.292C116.806 484.185 116.423 482.989 116.259 481.756C114.387 480.024 113.183 477.728 112.846 475.248C110.974 473.516 109.77 471.22 109.432 468.739C108.502 467.881 107.73 466.876 107.15 465.767C106.569 464.658 106.187 463.463 106.019 462.231C105.091 461.372 104.323 460.367 103.746 459.259C103.158 458.153 102.775 456.956 102.614 455.723C102.036 455.203 101.52 454.622 101.078 453.99C99.2299 454.354 97.3146 454.241 95.5267 453.66C94.8627 453.447 94.2194 453.177 93.6044 452.854C91.6066 453.366 89.4961 453.294 87.541 452.646C82.9868 451.182 80.1751 447.273 81.316 443.902Z" fill="#3F3D56"/>
<g opacity="0.1">
<path d="M89.4274 430.617C89.9036 431.07 90.4274 431.473 90.9904 431.822C90.9143 433.066 91.085 434.313 91.4934 435.496C91.1325 435.023 90.8139 434.522 90.5412 433.997C89.9794 432.937 89.603 431.795 89.4274 430.617Z" fill="black"/>
<path d="M84.5138 421.257C84.9925 421.705 85.5161 422.106 86.0768 422.453C86.0013 423.701 86.172 424.95 86.5798 426.136C85.4917 424.695 84.7827 423.021 84.5138 421.257Z" fill="black"/>
<path d="M95.6794 417.765C95.7221 417.123 95.6981 416.478 95.6075 415.841C96.4857 416.678 97.2169 417.646 97.7724 418.71C98.0436 419.235 98.2718 419.779 98.4551 420.339C97.7065 419.32 96.7647 418.446 95.6794 417.765Z" fill="black"/>
<path d="M126.85 474.494C126.457 473.962 126.012 473.469 125.52 473.02C125.438 472.433 125.306 471.853 125.125 471.287C125.515 471.796 125.86 472.335 126.158 472.899C126.431 473.413 126.662 473.946 126.85 474.494Z" fill="black"/>
<path d="M123.409 467.985C123.016 467.454 122.571 466.961 122.08 466.512C122.006 465.925 121.88 465.345 121.703 464.779C122.443 465.746 123.013 466.823 123.391 467.968L123.409 467.985Z" fill="black"/>
<path d="M94.3499 440.011C94.8215 440.46 95.3426 440.859 95.904 441.198C95.8368 442.195 95.9338 443.195 96.1914 444.162C95.8886 444.214 95.5888 444.28 95.2931 444.362C94.6778 444.042 94.0346 443.775 93.3708 443.564C88.7716 442.108 84.1096 443.66 82.9688 447.031C82.6828 447.869 82.6302 448.766 82.8161 449.631C82.077 448.881 81.5514 447.959 81.2901 446.955C81.0289 445.952 81.0409 444.9 81.3249 443.902C82.4747 440.531 87.1368 438.98 91.736 440.436C92.3975 440.645 93.0379 440.912 93.6493 441.233C93.9457 441.155 94.2511 441.086 94.5476 441.034C94.4612 440.697 94.3952 440.355 94.3499 440.011Z" fill="black"/>
<path d="M128.538 477.761C128.93 478.272 129.276 478.814 129.571 479.382C129.846 479.906 130.077 480.451 130.263 481.011C129.87 480.477 129.425 479.98 128.934 479.529C128.854 478.93 128.721 478.339 128.538 477.761Z" fill="black"/>
<path d="M100.593 427.15C100.636 426.508 100.612 425.864 100.521 425.227C101.401 426.061 102.133 427.031 102.686 428.095C102.957 428.617 103.185 429.159 103.369 429.716C102.62 428.699 101.678 427.828 100.593 427.15Z" fill="black"/>
<path d="M107.698 465.368C107.782 466.016 107.93 466.654 108.138 467.275C107.39 466.285 106.819 465.18 106.45 464.008C106.823 464.496 107.241 464.951 107.698 465.368Z" fill="black"/>
<path d="M114.516 478.385C114.607 479.032 114.757 479.67 114.965 480.291C114.604 479.819 114.286 479.317 114.013 478.792C113.718 478.235 113.471 477.655 113.277 477.059C113.653 477.532 114.067 477.975 114.516 478.385Z" fill="black"/>
<path d="M111.112 471.876C111.196 472.524 111.343 473.162 111.552 473.783C111.194 473.308 110.876 472.807 110.6 472.284C110.303 471.727 110.057 471.148 109.863 470.551C110.238 471.027 110.656 471.471 111.112 471.876Z" fill="black"/>
<path d="M104.285 458.851C104.368 459.502 104.515 460.143 104.725 460.766C104.384 460.291 104.084 459.789 103.827 459.267C103.526 458.712 103.276 458.132 103.081 457.534C103.44 458.007 103.843 458.448 104.285 458.851Z" fill="black"/>
<path d="M126.625 442.394C123.131 441.285 119.079 443.989 117.57 448.46C117.352 449.101 117.196 449.759 117.103 450.428C116.326 451.011 115.648 451.707 115.091 452.49C114.883 451.619 114.566 450.775 114.148 449.977C113.995 449.682 113.825 449.396 113.645 449.11C114.155 448.427 114.759 447.815 115.441 447.291C115.534 446.622 115.69 445.964 115.909 445.323C117.427 440.886 121.478 438.182 124.972 439.257C125.974 439.628 126.86 440.243 127.543 441.042C128.226 441.84 128.683 442.796 128.871 443.815C128.26 443.164 127.487 442.675 126.625 442.394Z" fill="black"/>
<path d="M110.42 445.887C110.463 445.245 110.439 444.6 110.348 443.963C111.229 444.798 111.96 445.767 112.513 446.831C112.784 447.356 113.013 447.901 113.196 448.461C112.45 447.439 111.507 446.566 110.42 445.887Z" fill="black"/>
<path d="M105.507 436.51C105.549 435.868 105.525 435.223 105.435 434.586C106.311 435.424 107.042 436.393 107.6 437.454C107.871 437.98 108.099 438.524 108.282 439.084C107.534 438.064 106.592 437.191 105.507 436.51Z" fill="black"/>
<path d="M117.93 484.893C118.016 485.544 118.166 486.185 118.379 486.808C118.02 486.331 117.701 485.827 117.427 485.3C117.131 484.744 116.885 484.164 116.69 483.567C117.066 484.04 117.481 484.483 117.93 484.893Z" fill="black"/>
</g>
<path d="M74.6058 400.58C73.0132 399.569 71.7294 398.166 70.8869 396.515C68.6682 392.278 69.5844 387.52 72.935 385.882C76.2856 384.244 80.8129 386.35 83.0316 390.588C83.9092 392.222 84.3186 394.053 84.2174 395.891C85.7998 396.918 87.0827 398.319 87.943 399.961C88.8034 401.603 89.2124 403.43 89.1309 405.268C90.7245 406.281 92.011 407.683 92.8588 409.333C93.1284 409.853 93.3566 410.391 93.5415 410.945C92.3516 409.306 90.6385 408.089 88.6638 407.478C88.4439 408.155 88.0863 408.783 87.6119 409.325C87.1375 409.867 86.5559 410.313 85.9011 410.635C85.2462 410.958 84.5313 411.152 83.798 411.205C83.0647 411.258 82.3278 411.169 81.6303 410.945C80.9643 412.842 80.9643 414.897 81.6303 416.794C81.2928 416.323 80.9925 415.827 80.732 415.312C79.8542 413.678 79.4419 411.847 79.5373 410.009C77.9567 408.98 76.6753 407.579 75.8152 405.937C74.9551 404.296 74.5449 402.47 74.6238 400.632L74.6058 400.58Z" fill="#3F3D56"/>
<path d="M20.6014 340.489C19.2388 339.874 17.9212 339.17 16.6579 338.383L31.2819 328.07L14.0888 336.606C10.6126 333.94 7.73698 330.617 5.63794 326.841C3.53889 323.065 2.26058 318.915 1.88124 314.646L31.1112 314.941L1.81836 310.209C2.07058 305.898 3.24035 301.683 5.25478 297.827C7.26921 293.971 10.0851 290.556 13.5271 287.796C16.9691 285.036 20.9634 282.989 25.2612 281.783C29.5589 280.577 34.068 280.238 38.5076 280.787C42.9471 281.335 47.222 282.76 51.0658 284.973C54.9097 287.185 58.2401 290.137 60.8497 293.645C63.4592 297.153 65.292 301.142 66.2338 305.364C67.1756 309.585 67.2062 313.949 66.3237 318.182C68.4455 319.129 70.457 320.291 72.3242 321.648L57.0535 342.135L75.3873 324.214C79.2561 327.88 82.1165 332.419 83.71 337.419C85.3035 342.42 85.5798 347.726 84.5138 352.855C90.0599 355.348 94.7671 359.295 98.097 364.247C101.427 369.199 103.245 374.954 103.344 380.856C103.443 386.758 101.818 392.567 98.6556 397.62C95.4931 402.673 90.9205 406.765 85.4608 409.429C80.001 412.093 73.8744 413.22 67.7817 412.683C61.6889 412.145 55.8759 409.965 51.0073 406.39C46.1388 402.815 42.4112 397.991 40.251 392.468C38.0907 386.946 37.585 380.949 38.7915 375.162C32.172 372.186 26.7805 367.151 23.482 360.865C20.1834 354.579 19.169 347.406 20.6014 340.497V340.489Z" fill="#A6A6A6"/>
<path opacity="0.1" d="M81.6394 332.499C84.9523 338.789 85.9653 345.975 84.5139 352.89C90.0599 355.382 94.7671 359.33 98.0971 364.282C101.427 369.233 103.245 374.989 103.344 380.891C103.443 386.793 101.818 392.602 98.6557 397.655C95.4932 402.708 90.9206 406.8 85.4608 409.464C80.001 412.127 73.8745 413.255 67.7817 412.718C61.6889 412.18 55.8759 409.999 51.0074 406.425C46.1388 402.85 42.4113 398.026 40.251 392.503C38.0908 386.981 37.585 380.983 38.7915 375.197C32.3868 372.328 79.9955 329.353 81.6394 332.499Z" fill="black"/>
<path d="M44.9178 286.984C47.5918 286.984 49.7595 284.892 49.7595 282.313C49.7595 279.733 47.5918 277.642 44.9178 277.642C42.2438 277.642 40.076 279.733 40.076 282.313C40.076 284.892 42.2438 286.984 44.9178 286.984Z" fill="#A6A6A6"/>
<path d="M16.6579 289.982C19.3319 289.982 21.4996 287.891 21.4996 285.311C21.4996 282.731 19.3319 280.64 16.6579 280.64C13.9839 280.64 11.8162 282.731 11.8162 285.311C11.8162 287.891 13.9839 289.982 16.6579 289.982Z" fill="#A6A6A6"/>
<path d="M5.7708 331.918C8.4448 331.918 10.6125 329.827 10.6125 327.247C10.6125 324.667 8.4448 322.576 5.7708 322.576C3.09679 322.576 0.929077 324.667 0.929077 327.247C0.929077 329.827 3.09679 331.918 5.7708 331.918Z" fill="#A6A6A6"/>
<path d="M20.4756 352.864C23.1496 352.864 25.3173 350.773 25.3173 348.193C25.3173 345.613 23.1496 343.522 20.4756 343.522C17.8016 343.522 15.6339 345.613 15.6339 348.193C15.6339 350.773 17.8016 352.864 20.4756 352.864Z" fill="#A6A6A6"/>
<path d="M40.5611 396.359C43.2351 396.359 45.4028 394.268 45.4028 391.688C45.4028 389.109 43.2351 387.017 40.5611 387.017C37.8871 387.017 35.7194 389.109 35.7194 391.688C35.7194 394.268 37.8871 396.359 40.5611 396.359Z" fill="#A6A6A6"/>
<path opacity="0.1" d="M40.5611 396.359C43.2351 396.359 45.4028 394.268 45.4028 391.688C45.4028 389.109 43.2351 387.017 40.5611 387.017C37.8871 387.017 35.7194 389.109 35.7194 391.688C35.7194 394.268 37.8871 396.359 40.5611 396.359Z" fill="black"/>
<path d="M85.2325 347.092C87.9065 347.092 90.0742 345.001 90.0742 342.421C90.0742 339.842 87.9065 337.75 85.2325 337.75C82.5585 337.75 80.3907 339.842 80.3907 342.421C80.3907 345.001 82.5585 347.092 85.2325 347.092Z" fill="#A6A6A6"/>
<path opacity="0.1" d="M85.2325 347.092C87.9065 347.092 90.0742 345.001 90.0742 342.421C90.0742 339.842 87.9065 337.75 85.2325 337.75C82.5585 337.75 80.3907 339.842 80.3907 342.421C80.3907 345.001 82.5585 347.092 85.2325 347.092Z" fill="black"/>
<path opacity="0.1" d="M90.3976 419.186C93.6134 417.618 94.5836 413.181 92.7062 409.082C92.805 409.255 92.9038 409.419 92.9936 409.593C95.2123 413.831 94.2961 418.588 90.9365 420.226C87.577 421.864 83.0676 419.758 80.8489 415.521C80.759 415.347 80.6692 415.174 80.5884 414.992C82.897 418.883 87.1817 420.755 90.3976 419.186Z" fill="black"/>
<path opacity="0.1" d="M95.1674 428.303C98.3832 426.734 99.3624 422.289 97.485 418.198C97.5838 418.363 97.6826 418.536 97.7724 418.71C99.9912 422.947 99.0749 427.705 95.7154 429.343C92.3558 430.981 87.8464 428.875 85.6277 424.637C85.5289 424.464 85.448 424.282 85.3672 424.109C87.6758 428.017 91.9695 429.872 95.1674 428.303Z" fill="black"/>
<path opacity="0.1" d="M99.9462 437.411C103.162 435.843 104.141 431.405 102.255 427.306C102.363 427.48 102.452 427.644 102.551 427.826C104.77 432.055 103.845 436.822 100.494 438.451C97.1436 440.08 92.6252 437.983 90.4065 433.745C90.3077 433.572 90.2268 433.399 90.146 433.217C92.4456 437.108 96.7304 438.98 99.9462 437.411Z" fill="black"/>
<path opacity="0.1" d="M104.725 446.528C107.941 444.959 108.92 440.522 107.034 436.423C107.133 436.588 107.231 436.761 107.321 436.935C109.549 441.172 108.624 445.93 105.273 447.568C101.923 449.206 97.3952 447.1 95.1765 442.862C95.0866 442.689 95.0058 442.507 94.9249 442.334C97.2245 446.216 101.509 448.097 104.725 446.528Z" fill="black"/>
<path opacity="0.1" d="M109.504 455.636C112.72 454.068 113.69 449.63 111.812 445.54C111.911 445.705 112.01 445.878 112.1 446.051C114.319 450.289 113.402 455.047 110.052 456.685C106.701 458.323 102.174 456.208 99.9552 451.979C99.8654 451.797 99.7845 451.624 99.6947 451.45C102.003 455.333 106.288 457.205 109.504 455.636Z" fill="black"/>
<path opacity="0.1" d="M114.283 464.753C117.499 463.184 118.469 458.747 116.591 454.648C116.69 454.822 116.789 454.986 116.879 455.16C119.098 459.397 118.181 464.155 114.831 465.793C111.48 467.431 106.953 465.325 104.734 461.087C104.644 460.914 104.554 460.741 104.474 460.559C106.782 464.415 111.067 466.322 114.283 464.753Z" fill="black"/>
<path opacity="0.1" d="M119.062 473.87C122.268 472.301 123.248 467.856 121.37 463.765C121.469 463.93 121.568 464.103 121.658 464.276C123.876 468.514 122.96 473.272 119.601 474.91C116.241 476.548 111.732 474.433 109.513 470.204C109.423 470.022 109.333 469.849 109.252 469.675C111.561 473.558 115.846 475.438 119.062 473.87Z" fill="black"/>
<path opacity="0.1" d="M123.831 482.978C127.047 481.409 128.026 476.972 126.14 472.873C126.248 473.047 126.338 473.211 126.436 473.393C128.655 477.622 127.73 482.389 124.379 484.018C121.029 485.647 116.511 483.55 114.292 479.312C114.193 479.139 114.112 478.966 114.031 478.784C116.34 482.675 120.616 484.547 123.831 482.978Z" fill="black"/>
<path opacity="0.1" d="M127.002 488.966C130.218 487.398 131.188 482.961 129.311 478.862C129.41 479.035 129.509 479.2 129.598 479.382C131.817 483.611 130.901 488.377 127.55 490.006C124.2 491.636 119.672 489.538 117.454 485.301C117.364 485.127 117.274 484.954 117.193 484.772C119.475 488.68 123.76 490.535 127.002 488.966Z" fill="black"/>
<path d="M40.6419 448.409C40.143 447.03 39.8408 445.593 39.7437 444.136C39.4115 444.135 39.0832 444.068 38.7791 443.939C38.4751 443.81 38.2019 443.622 37.9766 443.386C37.7513 443.151 37.5787 442.873 37.4697 442.57C37.3607 442.267 37.3175 441.946 37.3429 441.627C37.3683 441.307 37.4616 440.996 37.6172 440.713C37.7728 440.43 37.9872 440.181 38.2471 439.981C38.5069 439.782 38.8066 439.636 39.1275 439.553C39.4484 439.47 39.7835 439.452 40.112 439.5C40.6509 437.138 41.7277 434.921 43.2642 433.01C44.8007 431.099 46.7586 429.541 48.9959 428.45C48.7065 427.898 48.6565 427.256 48.8569 426.668C49.0574 426.08 49.4919 425.592 50.0649 425.313C50.6378 425.034 51.3023 424.986 51.9122 425.179C52.522 425.372 53.0272 425.792 53.3166 426.344C53.4218 426.54 53.4945 426.751 53.5322 426.968C56.1902 426.498 58.9263 426.645 61.5133 427.399C64.1004 428.152 66.4639 429.49 68.4077 431.301C69.8924 431.067 71.4031 431.026 72.8991 431.18L74.8573 439.777L74.9023 431.483C77.1295 431.98 79.2294 432.907 81.0755 434.208C82.9215 435.508 84.4754 437.156 85.6435 439.052C86.8116 440.948 87.5698 443.052 87.8723 445.238C88.1747 447.424 88.0153 449.646 87.4035 451.771C86.7917 453.896 85.7402 455.88 84.3125 457.602C82.8848 459.325 81.1103 460.75 79.0961 461.793C77.0819 462.836 74.8697 463.475 72.5928 463.671C70.3158 463.867 68.0213 463.616 65.8476 462.933C65.6112 463.336 65.2586 463.664 64.8326 463.878C64.3886 464.094 63.8864 464.173 63.3942 464.105C62.9019 464.036 62.4433 463.824 62.0806 463.496C61.7178 463.167 61.4684 462.739 61.3662 462.27C61.2639 461.8 61.3138 461.312 61.5089 460.87C60.7387 460.352 60.0146 459.772 59.3441 459.137C55.8107 459.689 52.1869 459.148 48.9919 457.592C45.7969 456.035 43.1947 453.542 41.5582 450.471L50.6757 448.989L40.6419 448.409Z" fill="#A6A6A6"/>
<g opacity="0.1">
<path d="M54.7269 452.586C58.0955 448.253 60.1615 443.226 62.533 438.356C63.4827 436.352 64.5504 434.401 65.7308 432.515L67.5274 430.513C67.8328 430.764 68.1293 431.016 68.4257 431.276C69.9104 431.041 71.4211 431 72.9171 431.154L74.8753 439.751L74.9023 431.484C77.1295 431.98 79.2294 432.907 81.0755 434.208C82.9215 435.508 84.4754 437.156 85.6435 439.052C86.8116 440.948 87.5698 443.052 87.8723 445.238C88.1747 447.424 88.0153 449.647 87.4035 451.772C86.7917 453.896 85.7402 455.88 84.3125 457.602C82.8848 459.325 81.1103 460.75 79.0961 461.793C77.0819 462.836 74.8697 463.475 72.5928 463.671C70.3158 463.867 68.0213 463.616 65.8476 462.933C65.6112 463.336 65.2586 463.664 64.8326 463.878C64.3886 464.094 63.8865 464.173 63.3942 464.105C62.9019 464.036 62.4434 463.824 62.0806 463.496C61.7178 463.167 61.4684 462.739 61.3662 462.27C61.2639 461.8 61.3138 461.312 61.5089 460.871C60.7387 460.352 60.0146 459.772 59.3441 459.137C55.8839 459.673 52.3368 459.167 49.1846 457.69C51.3047 456.287 53.1762 454.564 54.7269 452.586Z" fill="black"/>
</g>
<path d="M114.346 434.161C114.202 433.888 114.116 433.591 114.092 433.285C114.068 432.98 114.106 432.673 114.206 432.383C114.305 432.092 114.463 431.823 114.67 431.591C114.878 431.36 115.131 431.17 115.415 431.033C115.754 430.865 116.13 430.779 116.51 430.782C117.196 427.272 119.054 424.076 121.801 421.682C121.357 420.017 121.19 418.294 121.307 416.578L130.191 415.139L121.559 414.611C121.715 413.828 121.931 413.057 122.206 412.305C121.866 412.087 121.591 411.789 121.406 411.439C121.19 411.021 121.108 410.551 121.171 410.088C121.235 409.626 121.44 409.192 121.76 408.843C122.081 408.493 122.502 408.244 122.971 408.128C123.439 408.011 123.933 408.033 124.388 408.189C125.975 406.011 128.095 404.246 130.56 403.05C133.463 401.629 136.729 401.045 139.967 401.37C143.205 401.694 146.277 402.913 148.815 404.88C151.353 406.846 153.25 409.478 154.277 412.458C155.304 415.438 155.418 418.641 154.606 421.682C155.029 421.857 155.391 422.144 155.65 422.51C155.909 422.876 156.054 423.305 156.07 423.748C156.085 424.191 155.969 424.629 155.735 425.011C155.501 425.392 155.16 425.702 154.75 425.903C154.443 426.053 154.107 426.138 153.763 426.153C153.419 426.168 153.076 426.112 152.756 425.989C151.889 427.391 150.808 428.659 149.549 429.75C150.47 433.206 150.195 436.858 148.768 440.15L136.883 437.134L147.51 442.533C145.915 444.989 143.671 446.992 141.009 448.336C138.346 449.68 135.362 450.316 132.361 450.18C129.359 450.045 126.449 449.141 123.929 447.563C121.409 445.984 119.37 443.788 118.02 441.198C117.08 439.396 116.489 437.443 116.277 435.435C115.869 435.4 115.477 435.264 115.139 435.041C114.801 434.818 114.528 434.515 114.346 434.161Z" fill="#A6A6A6"/>
<path opacity="0.1" d="M114.346 434.161C114.202 433.888 114.116 433.591 114.092 433.285C114.068 432.98 114.106 432.673 114.206 432.383C114.305 432.092 114.463 431.823 114.67 431.591C114.878 431.36 115.131 431.17 115.415 431.033C115.754 430.865 116.13 430.779 116.51 430.782C117.196 427.272 119.054 424.076 121.801 421.682C121.729 421.413 121.667 421.136 121.613 420.867C121.935 421.089 122.236 421.339 122.511 421.613C124.119 423.346 124.945 425.59 126.526 427.306C128.507 429.278 131.17 430.478 134.009 430.678C136.821 430.864 139.645 430.645 142.39 430.028C144.653 429.465 146.988 429.217 149.325 429.291L149.989 429.378L149.576 429.75C150.497 433.206 150.222 436.858 148.795 440.15L136.883 437.134L147.51 442.533C145.915 444.989 143.671 446.992 141.009 448.336C138.346 449.679 135.362 450.316 132.361 450.18C129.359 450.044 126.449 449.141 123.929 447.563C121.409 445.984 119.37 443.788 118.02 441.198C117.08 439.396 116.489 437.443 116.277 435.435C115.869 435.4 115.477 435.264 115.139 435.041C114.801 434.818 114.528 434.515 114.346 434.161Z" fill="black"/>
</g>
<path opacity="0.1" d="M312.048 45.8387C308.496 45.1884 304.825 45.5746 301.502 46.948C299.509 47.8049 297.351 48.2477 295.169 48.2477C292.987 48.2477 290.829 47.8049 288.836 46.948C286.48 45.9518 283.928 45.4614 281.357 45.5108C278.785 45.5601 276.255 46.1481 273.943 47.234C272.622 47.907 271.152 48.2609 269.658 48.2653C263.621 48.2653 258.6 42.3983 257.558 34.6594C258.762 33.8082 259.786 32.7435 260.576 31.5222C264.116 26.0192 269.559 22.4834 275.748 22.4834C281.937 22.4834 287.327 25.9499 290.866 31.4182C291.924 33.0604 293.401 34.4125 295.157 35.3444C296.913 36.2763 298.887 36.7567 300.891 36.7393H301.053C305.814 36.7133 309.973 40.431 312.048 45.8387Z" fill="#6C63FF"/>
<path opacity="0.1" d="M330.391 21.5734L320.635 27.5444L326.555 17.1449C324.876 15.8544 322.799 15.1408 320.653 15.1171H320.5C319.824 15.125 319.147 15.0757 318.479 14.9697L315.165 16.9976L316.584 14.5104C314.248 13.7262 312.225 12.2565 310.799 10.3073L304.861 13.8865L308.598 7.32617C305.14 3.31373 300.469 0.852539 295.34 0.852539C289.187 0.852539 283.662 4.38834 280.159 9.89136C279.111 11.5351 277.63 12.8819 275.868 13.7952C274.106 14.7084 272.124 15.1555 270.125 15.0911H269.829C263.038 15.0911 257.522 22.518 257.522 31.6955C257.522 40.8729 263.038 48.2912 269.829 48.2912C271.322 48.2868 272.793 47.9329 274.113 47.2599C276.426 46.1731 278.956 45.5854 281.528 45.5375C284.1 45.4896 286.652 45.9827 289.007 46.9826C291.001 47.8368 293.158 48.2782 295.34 48.2782C297.521 48.2782 299.679 47.8368 301.673 46.9826C304.009 46.004 306.537 45.5222 309.083 45.57C311.63 45.6179 314.136 46.1942 316.431 47.2599C317.742 47.9149 319.195 48.2595 320.671 48.2652C327.471 48.2652 332.978 40.8383 332.978 31.6695C333.001 28.1486 332.112 24.6779 330.391 21.5734Z" fill="#A6A6A6"/>
<path opacity="0.1" d="M109.037 165.9C103.964 164.974 98.7211 165.523 93.9727 167.477C91.123 168.696 88.0393 169.322 84.9222 169.314C81.8052 169.307 78.7247 168.666 75.8813 167.434C72.5169 166.011 68.8721 165.31 65.1993 165.38C61.5265 165.451 57.9133 166.29 54.6101 167.841C52.7209 168.801 50.6192 169.307 48.4839 169.314C39.8604 169.314 32.6832 160.934 31.192 149.876C32.9152 148.665 34.3793 147.143 35.5038 145.396C40.5611 137.536 48.394 132.483 57.1882 132.483C65.9823 132.483 73.7165 137.475 78.7468 145.248C80.2587 147.604 82.377 149.543 84.8956 150.875C87.4142 152.206 90.2474 152.887 93.1193 152.849H93.3439C100.153 152.84 106.099 158.152 109.037 165.9Z" fill="#6C63FF"/>
<path opacity="0.1" d="M135.266 131.192L121.325 139.719L129.787 124.874C127.389 123.028 124.42 122.006 121.352 121.971H121.128C120.159 121.985 119.191 121.915 118.235 121.763L113.528 124.701L115.558 121.148C112.209 120.019 109.316 117.895 107.294 115.081L98.8323 120.281L104.159 110.835C99.2096 105.107 92.5444 101.597 85.2144 101.597C76.4203 101.597 68.5873 106.641 63.53 114.501C62.0321 116.86 59.9127 118.793 57.3879 120.104C54.8631 121.414 52.0231 122.056 49.1576 121.962H48.6815C38.9711 121.962 31.1022 132.579 31.1022 145.682C31.1022 158.785 38.9711 169.401 48.6815 169.401C50.8182 169.396 52.9211 168.887 54.8077 167.919C58.1116 166.37 61.725 165.532 65.3979 165.463C69.0707 165.394 72.7152 166.096 76.079 167.521C78.9223 168.753 82.0028 169.394 85.1198 169.401C88.2369 169.409 91.3206 168.783 94.1703 167.564C97.5092 166.166 101.121 165.477 104.76 165.544C108.399 165.612 111.981 166.433 115.262 167.954C117.131 168.897 119.207 169.394 121.316 169.401C131.027 169.401 138.896 158.776 138.896 145.682C138.963 140.635 137.715 135.652 135.266 131.192Z" fill="#A6A6A6"/>
<path opacity="0.1" d="M672.814 79.6367C676.365 78.9869 680.037 79.3731 683.36 80.746C685.351 81.6032 687.507 82.0462 689.688 82.0462C691.869 82.0462 694.025 81.6032 696.016 80.746C698.372 79.7497 700.924 79.2593 703.496 79.3087C706.067 79.3581 708.597 79.9461 710.91 81.032C712.231 81.704 713.701 82.0578 715.195 82.0632C721.231 82.0632 726.262 76.1962 727.304 68.4573C726.098 67.6084 725.073 66.5433 724.285 65.3202C720.764 59.7998 715.258 56.238 709.086 56.238C702.915 56.238 697.517 59.7045 693.977 65.1729C692.922 66.8224 691.443 68.1813 689.683 69.118C687.924 70.0547 685.944 70.5375 683.935 70.5199H683.782C679.003 70.5112 674.835 74.229 672.814 79.6367Z" fill="#6C63FF"/>
<path opacity="0.1" d="M654.417 55.3713L664.173 61.325L658.244 50.9256C659.923 49.6362 662 48.9228 664.146 48.8977H664.307C664.984 48.9052 665.661 48.8559 666.329 48.7504L669.634 50.7783L668.215 48.2911C670.567 47.52 672.61 46.0559 674.054 44.1053L679.973 47.7278L676.228 41.1675C679.695 37.155 684.312 34.6938 689.495 34.6938C695.648 34.6938 701.173 38.2296 704.676 43.7327C705.724 45.377 707.204 46.7243 708.966 47.6377C710.729 48.551 712.71 48.9977 714.71 48.9324H715.033C721.833 48.9324 727.34 56.3593 727.34 65.5368C727.34 74.7142 721.833 82.1325 715.033 82.1325C713.54 82.1261 712.07 81.7723 710.748 81.1012C708.436 80.0145 705.905 79.4267 703.333 79.3788C700.761 79.3309 698.209 79.824 695.855 80.8239C693.863 81.6779 691.707 82.1192 689.527 82.1192C687.346 82.1192 685.19 81.6779 683.198 80.8239C680.86 79.8451 678.331 79.3632 675.783 79.4111C673.235 79.4589 670.727 80.0354 668.43 81.1012C667.12 81.7572 665.667 82.1018 664.191 82.1065C657.4 82.1065 651.884 74.6796 651.884 65.5108C651.836 61.9798 652.707 58.4936 654.417 55.3713Z" fill="#A6A6A6"/>
<path opacity="0.1" d="M553.936 674.111C610.988 674.111 657.238 666.351 657.238 656.778C657.238 647.206 610.988 639.446 553.936 639.446C496.884 639.446 450.634 647.206 450.634 656.778C450.634 666.351 496.884 674.111 553.936 674.111Z" fill="#6C63FF"/>
<path d="M499.869 574.449L339.804 572.465L340.281 568.504L348.015 503.17H488.586L498.925 568.504L499.716 573.461L499.869 574.449Z" fill="#D0D2D5"/>
<path opacity="0.1" d="M499.716 573.461H419.841L339.804 572.465L340.281 568.504H498.925L499.716 573.461Z" fill="black"/>
<path d="M525.523 569.501H313.125V574.449H525.523V569.501Z" fill="#D0D2D5"/>
<path d="M728.166 110.766C728.178 107.351 726.785 104.071 724.292 101.647C721.799 99.2225 718.411 97.8517 714.871 97.8357H121.721C119.966 97.8436 118.231 98.1848 116.614 98.8398C114.996 99.4948 113.528 100.451 112.294 101.653C111.059 102.855 110.082 104.28 109.419 105.847C108.755 107.413 108.418 109.091 108.426 110.783V457.647H728.166V110.766Z" fill="#404040"/>
<path d="M108.426 454.18V494.807C108.426 498.209 109.827 501.471 112.32 503.876C114.813 506.282 118.195 507.633 121.721 507.633H714.871C718.397 507.633 721.779 506.282 724.272 503.876C726.765 501.471 728.166 498.209 728.166 494.807V454.18H108.426Z" fill="#D0D2D5"/>
<path d="M705.592 119.588H134.081V431.406H705.592V119.588Z" fill="white"/>
<path d="M421.377 492.216C423.476 492.218 425.547 491.76 427.435 490.876C429.323 489.991 430.977 488.704 432.273 487.112C432.667 486.627 433.027 486.117 433.351 485.586L425.743 484.347L433.962 484.399C434.75 482.745 435.18 480.954 435.224 479.134C435.269 477.315 434.928 475.506 434.222 473.818L423.201 479.329L433.369 472.119C432.414 470.536 431.132 469.158 429.602 468.073C428.072 466.988 426.327 466.217 424.475 465.81C422.624 465.403 420.705 465.367 418.839 465.706C416.972 466.044 415.198 466.749 413.626 467.777C412.054 468.804 410.718 470.133 409.7 471.68C408.683 473.227 408.006 474.96 407.712 476.77C407.418 478.58 407.513 480.429 407.991 482.202C408.468 483.975 409.319 485.634 410.49 487.077C411.781 488.675 413.433 489.968 415.319 490.858C417.205 491.748 419.277 492.213 421.377 492.216Z" fill="#F688B6"/>
<path opacity="0.1" d="M435.229 507.625L499.087 569.501L489.287 507.625H435.229Z" fill="black"/>
<path opacity="0.1" d="M705.763 119.623H133.632V137.839H705.763V119.623Z" fill="#444053"/>
<path opacity="0.3" d="M504.135 122.794H332.798C332.51 122.794 332.277 123.019 332.277 123.297V133.376C332.277 133.653 332.51 133.878 332.798 133.878H504.135C504.423 133.878 504.656 133.653 504.656 133.376V123.297C504.656 123.019 504.423 122.794 504.135 122.794Z" fill="#6C63FF"/>
<path d="M499.536 129.485H499.114L498.961 129.355C499.484 128.749 499.77 127.985 499.77 127.197C499.764 126.55 499.561 125.919 499.184 125.383C498.807 124.848 498.274 124.432 497.653 124.188C497.032 123.944 496.349 123.884 495.692 124.014C495.035 124.144 494.433 124.459 493.961 124.919C493.489 125.379 493.169 125.963 493.041 126.599C492.913 127.234 492.983 127.891 493.242 128.488C493.502 129.085 493.938 129.595 494.497 129.953C495.056 130.31 495.712 130.5 496.383 130.499C497.201 130.496 497.993 130.217 498.62 129.71L498.773 129.84V130.247L501.405 132.787L502.186 132.024L499.536 129.485ZM496.383 129.485C495.914 129.486 495.454 129.354 495.063 129.103C494.672 128.853 494.367 128.496 494.186 128.078C494.005 127.66 493.957 127.2 494.047 126.756C494.138 126.311 494.363 125.903 494.694 125.582C495.026 125.261 495.448 125.043 495.908 124.954C496.369 124.865 496.846 124.909 497.28 125.082C497.714 125.255 498.084 125.548 498.345 125.925C498.606 126.301 498.746 126.744 498.746 127.197C498.748 127.497 498.689 127.795 498.571 128.073C498.453 128.351 498.279 128.604 498.06 128.817C497.84 129.029 497.579 129.198 497.291 129.313C497.003 129.427 496.695 129.486 496.383 129.485Z" fill="#3F3D56"/>
<path opacity="0.8" d="M143.917 132.067C145.827 132.067 147.375 130.573 147.375 128.731C147.375 126.888 145.827 125.394 143.917 125.394C142.007 125.394 140.459 126.888 140.459 128.731C140.459 130.573 142.007 132.067 143.917 132.067Z" fill="#FA5959"/>
<path opacity="0.8" d="M153.43 132.067C155.34 132.067 156.888 130.573 156.888 128.731C156.888 126.888 155.34 125.394 153.43 125.394C151.52 125.394 149.971 126.888 149.971 128.731C149.971 130.573 151.52 132.067 153.43 132.067Z" fill="#FED253"/>
<path opacity="0.8" d="M162.952 132.067C164.862 132.067 166.41 130.573 166.41 128.731C166.41 126.888 164.862 125.394 162.952 125.394C161.042 125.394 159.493 126.888 159.493 128.731C159.493 130.573 161.042 132.067 162.952 132.067Z" fill="#8CCF4D"/>
<path d="M450.113 253.385C442.271 243.332 430.908 236.989 418.26 236.989C405.612 236.989 394.249 243.332 386.407 253.385C388.141 257.487 390.706 261.215 393.953 264.348C397.965 268.216 402.907 271.068 408.338 272.647C413.769 274.226 419.521 274.485 425.081 273.4C430.641 272.314 435.836 269.919 440.204 266.427C444.571 262.935 447.975 258.454 450.113 253.385Z" fill="#F688B6"/>
<path d="M382.266 259.269C381.708 259.038 381.177 258.747 380.685 258.403C379.941 257.815 379.345 257.071 378.942 256.227C379.456 255.209 379.672 254.074 379.567 252.946C379.462 251.818 379.039 250.739 378.345 249.825C377.651 248.912 376.711 248.198 375.628 247.762C374.544 247.326 373.358 247.183 372.196 247.349C371.035 247.516 369.942 247.985 369.037 248.706C368.132 249.427 367.447 250.373 367.058 251.442C366.669 252.511 366.59 253.662 366.829 254.771C367.068 255.88 367.616 256.905 368.415 257.735C368.865 258.197 369.379 258.596 369.942 258.923C370.673 259.331 371.268 259.932 371.657 260.656C372.392 262.088 373.405 263.37 374.64 264.434C375.907 265.483 377.275 266.412 378.727 267.208C376.729 272.663 375.596 278.377 375.367 284.159C373.045 284.196 370.739 284.555 368.522 285.225C367.387 285.565 366.316 286.08 365.351 286.75C365.092 286.719 364.831 286.702 364.57 286.698C363.391 286.698 362.235 287.009 361.227 287.597C360.218 288.186 359.396 289.03 358.849 290.037C358.302 291.044 358.051 292.177 358.123 293.312C358.196 294.447 358.589 295.541 359.26 296.476C359.931 297.411 360.854 298.151 361.93 298.615C363.006 299.08 364.193 299.252 365.362 299.113C366.532 298.973 367.64 298.527 368.566 297.824C369.492 297.12 370.201 296.186 370.615 295.121C370.871 294.435 371.316 293.829 371.904 293.371C372.492 292.912 373.199 292.618 373.948 292.521C374.5 292.457 375.054 292.422 375.61 292.417C376.381 300.572 379.004 308.463 383.29 315.53C379.481 318.381 377.137 321.492 376.149 324.942C375.964 325.04 375.792 325.16 375.637 325.297C375.366 325.501 375.114 325.727 374.882 325.973C374.113 326.789 373.582 327.789 373.345 328.869C373.107 329.948 373.172 331.069 373.532 332.117C373.892 333.165 374.534 334.101 375.393 334.83C376.252 335.559 377.296 336.055 378.419 336.266C379.542 336.478 380.703 336.397 381.783 336.033C382.863 335.668 383.823 335.033 384.565 334.193C385.306 333.353 385.803 332.337 386.004 331.25C386.204 330.164 386.102 329.045 385.706 328.009C385.413 327.257 385.356 326.438 385.543 325.655C385.73 324.872 386.152 324.159 386.757 323.607C387.189 323.217 387.656 322.801 388.285 322.342C395.57 330.549 404.238 335.809 415.062 336.433V280.753C400.753 279.999 388.284 271.012 382.266 259.269ZM471.941 286.758C471.68 286.762 471.419 286.779 471.16 286.81C470.185 286.156 469.117 285.642 467.989 285.285C465.772 284.614 463.467 284.255 461.144 284.219C460.895 278.443 459.762 272.734 457.784 267.277C459.236 266.481 460.604 265.552 461.871 264.504C463.146 263.379 464.194 262.036 464.962 260.543C465.321 259.895 465.876 259.366 466.551 259.027C467.647 258.432 468.539 257.542 469.118 256.465C469.696 255.388 469.935 254.172 469.807 252.966C469.678 251.759 469.187 250.615 468.393 249.675C467.599 248.734 466.538 248.038 465.34 247.671C464.142 247.305 462.858 247.284 461.648 247.612C460.438 247.94 459.353 248.601 458.527 249.516C457.702 250.431 457.171 251.558 457.001 252.76C456.83 253.961 457.028 255.185 457.569 256.279C457.173 257.127 456.576 257.872 455.826 258.455C455.322 258.856 454.794 259.23 454.245 259.573C448.227 271.307 435.767 280.042 421.476 280.796V336.528C432.255 335.904 440.978 330.618 448.254 322.437C448.819 322.87 449.296 323.26 449.7 323.624C450.33 324.188 450.774 324.919 450.975 325.726C451.176 326.532 451.126 327.378 450.832 328.157C450.439 329.191 450.337 330.308 450.538 331.393C450.739 332.477 451.235 333.491 451.975 334.331C452.715 335.17 453.673 335.804 454.751 336.169C455.828 336.534 456.987 336.617 458.109 336.408C459.23 336.199 460.274 335.707 461.134 334.982C461.993 334.256 462.638 333.323 463.001 332.279C463.365 331.234 463.434 330.115 463.203 329.036C462.971 327.957 462.447 326.957 461.683 326.138C461.451 325.892 461.199 325.666 460.928 325.462C460.632 325.236 460.416 325.106 460.416 325.106C459.428 321.64 457.093 318.546 453.23 315.695C457.517 308.627 460.139 300.737 460.91 292.582C461.442 292.588 461.973 292.623 462.5 292.686C463.265 292.781 463.989 293.073 464.598 293.53C465.206 293.988 465.676 294.594 465.959 295.286C466.495 296.605 467.482 297.707 468.756 298.411C470.03 299.116 471.515 299.38 472.965 299.159C474.416 298.939 475.745 298.248 476.733 297.2C477.721 296.152 478.309 294.811 478.4 293.397C478.445 292.548 478.311 291.699 478.008 290.901C477.705 290.103 477.237 289.372 476.634 288.752C476.031 288.132 475.305 287.636 474.498 287.294C473.692 286.951 472.822 286.769 471.941 286.758Z" fill="#F688B6"/>
<path d="M612.656 646.673C612.135 645.875 611.475 645.169 610.707 644.585C606.782 641.006 604.958 635.754 603.988 630.606C603.018 625.458 602.739 620.207 601.185 615.172C600.34 612.59 599.283 610.077 598.023 607.658C597.125 605.803 595.993 602.172 594.35 600.872C594.027 600.603 593.637 600.421 593.218 600.344C592.441 598.752 591.334 597.33 589.966 596.167C587.397 593.922 584.262 592.137 582.546 589.234C582.075 588.227 581.493 587.271 580.812 586.383C579.654 585.152 577.821 584.649 576.752 583.349C575.36 581.668 575.674 579.259 575.854 577.118C576.034 574.978 575.854 572.413 573.932 571.286C572.782 570.602 571.3 570.671 570.105 570.064C568.308 569.198 567.599 567.014 567.635 565.064C567.671 563.114 568.299 561.216 568.461 559.266C568.964 553.061 564.724 546.891 566.359 540.877C566.979 538.597 568.398 536.621 569.449 534.498C569.816 533.792 570.116 533.055 570.347 532.297C573.15 533.369 576.096 534.055 579.097 534.334C574.147 523.622 575.405 511.178 573.096 499.669L573.393 499.279C575.724 496.312 577.048 492.722 577.183 489.001C577.183 484.72 575.108 480.716 574.174 476.521C573.375 472.96 573.411 469.233 572.378 465.732C571.661 463.556 570.71 461.459 569.539 459.475C568.419 457.47 567.242 455.497 566.009 453.556C564.859 449.882 563.706 446.207 562.55 442.533C560.934 437.376 559.272 432.133 556.128 427.679C554.978 426.05 554.628 422.739 552.858 421.751C551.421 421.034 549.791 420.759 548.187 420.963C545.69 419.611 543.498 417.661 543.184 414.992C543.153 414.408 543.213 413.824 543.363 413.258H543.669C547.621 412.912 549.624 409.549 551.681 406.603C555.005 401.836 553.738 395.389 551.681 389.964C551.171 388.252 550.248 386.68 548.986 385.379C546.103 382.779 541.54 383.351 537.821 382.095C536.572 381.679 535.404 381.046 534.129 380.752C531.659 380.197 529.072 380.977 526.808 382.078C524.544 383.178 522.433 384.599 520.062 385.466C517.69 386.333 514.762 387.017 514.178 389.366C514.015 390.157 514.083 390.976 514.376 391.732C514.922 393.239 515.881 394.574 517.152 395.597C516.142 397.605 515.596 399.801 515.551 402.033C515.506 404.265 515.963 406.479 516.892 408.524C517.82 410.569 519.197 412.395 520.927 413.877C522.658 415.358 524.701 416.46 526.916 417.106C527.598 418.163 528.236 419.238 528.82 420.339C529.862 422.28 530.742 424.568 530.383 426.648C529.733 427.314 529.133 428.023 528.587 428.771C526.009 432.237 524.544 436.302 523.197 440.358C521.387 445.536 519.937 450.826 518.858 456.191C516.666 460.688 513.99 464.987 512.4 469.71C509.553 469.713 506.719 469.346 503.974 468.618L496.392 466.963C493.751 466.382 491.003 465.758 488.937 464.077C487.841 463.21 486.987 462.058 485.873 461.2C484.76 460.342 482.523 459.337 481.301 460.047C481.078 460.178 480.87 460.332 480.681 460.506C479.568 458.331 478.508 456.173 477.214 454.067C475.355 451.121 472.588 448.426 469.085 447.863C466.944 447.53 464.754 448.022 462.985 449.232C460.937 450.636 459.653 453.565 461.189 455.541C461.573 455.98 461.99 456.392 462.437 456.771C463.477 457.927 464.406 459.171 465.213 460.489C468.109 464.41 472.44 467.124 477.331 468.081L477.016 468.947C476.379 470.75 475.022 472.925 475.364 474.797L509.085 485.933C511.248 486.78 513.544 487.269 515.876 487.38C516.786 487.373 517.691 487.256 518.571 487.034V488.698V488.767C518.661 500.197 516.774 511.55 516.424 522.972C516.361 525.061 516.424 527.305 517.789 528.935C519.316 530.72 522.029 531.075 524.392 530.668C524.961 530.575 525.517 530.454 526.062 530.304C526.861 533.179 527.438 536.108 527.787 539.065L530.015 554.543C530.301 556.128 530.419 557.736 530.365 559.344C530.105 562.975 528.119 566.225 526.682 569.579C525.245 572.933 524.392 576.945 526.278 580.082C526.871 581.053 527.688 581.876 528.218 582.881C528.892 584.438 529.199 586.119 529.117 587.804C529.254 592.472 529.386 597.146 529.512 601.826C529.12 601.764 528.718 601.841 528.38 602.042C526.512 603.446 526.718 610.128 526.583 612.199C526.44 615.666 526.583 619.201 526.386 622.703C526.152 627.421 525.366 632.099 524.041 636.646C523.717 638.125 523.01 639.499 521.984 640.642C520.934 641.523 519.68 642.15 518.328 642.47C513.853 643.822 509.173 644.438 504.486 644.29C502.59 644.229 500.614 644.056 498.854 644.749C497.093 645.443 495.674 647.349 496.311 649.082C496.859 650.538 498.521 651.232 500.021 651.778C503.448 652.942 506.756 654.41 509.902 656.163C511.113 656.959 512.39 657.657 513.72 658.251C514.995 658.693 516.313 659.007 517.655 659.187L533.581 661.839C536.842 662.376 540.767 662.706 542.842 660.106C543.965 658.702 544.127 656.795 544.073 655.01C543.983 651.544 543.264 648.016 543.732 644.55C544.086 642.501 544.646 640.489 545.402 638.544C546.989 633.997 548.582 629.454 550.181 624.912C551.78 620.354 553.397 615.752 554.017 610.969C554.241 609.235 554.223 607.259 552.849 606.176C552.501 605.901 552.097 605.7 551.663 605.587C551.609 601.41 551.044 597.224 551.286 593.047C551.349 592.007 551.457 590.967 551.547 589.918C552.379 590.682 553.123 591.53 553.765 592.449C555.301 594.771 555.867 597.839 558.212 599.382C560.206 600.699 563.161 600.63 564.563 602.536C565.013 603.269 565.352 604.06 565.569 604.885C566.382 606.928 567.603 608.798 569.162 610.388C569.697 612.29 570.441 614.132 571.381 615.882C572.704 618.58 574.021 621.27 575.333 623.95C576.681 626.844 578.18 629.67 579.824 632.417C581.08 634.147 582.091 636.029 582.834 638.016C584.1 642.297 582.034 646.994 578.764 650.148C575.495 653.303 571.183 655.114 566.934 656.804C566.486 656.95 566.076 657.186 565.73 657.497C565.362 657.918 565.167 658.455 565.182 659.005C565.182 661.007 566.889 662.723 568.847 663.338C570.849 663.857 572.947 663.931 574.983 663.555C586.463 662.212 597.907 659.508 608.057 654.126C609.575 653.432 610.921 652.43 612.001 651.188C612.522 650.563 612.859 649.813 612.974 649.018C613.09 648.223 612.98 647.413 612.656 646.673Z" fill="url(#paint0_linear_11_42)"/>
<path d="M564.14 452.334C566.057 455.171 567.853 458.077 569.53 461.052C570.705 463.02 571.659 465.103 572.378 467.266C573.42 470.732 573.393 474.433 574.174 477.969C575.072 482.129 577.174 486.098 577.174 490.361C577.037 494.056 575.712 497.617 573.384 500.553C571.062 503.463 568.403 506.109 565.461 508.439C558.678 491.486 554.888 473.555 554.25 455.393C554.16 452.88 554.143 450.289 555.095 447.94C555.679 446.467 558.481 442.429 560.287 444.015C560.942 444.595 561.113 447.212 561.517 448.088C562.274 449.568 563.151 450.988 564.14 452.334Z" fill="#2F2E41"/>
<path opacity="0.1" d="M564.14 452.334C566.057 455.171 567.853 458.077 569.53 461.052C570.705 463.02 571.659 465.103 572.378 467.266C573.42 470.732 573.393 474.433 574.174 477.969C575.072 482.129 577.174 486.098 577.174 490.361C577.037 494.056 575.712 497.617 573.384 500.553C571.062 503.463 568.403 506.109 565.461 508.439C558.678 491.486 554.888 473.555 554.25 455.393C554.16 452.88 554.143 450.289 555.095 447.94C555.679 446.467 558.481 442.429 560.287 444.015C560.942 444.595 561.113 447.212 561.517 448.088C562.274 449.568 563.151 450.988 564.14 452.334Z" fill="black"/>
<path d="M327.318 334.102C320.213 340.948 319.36 343.964 315.093 345.324C310.826 346.685 295.474 354.354 300.298 362.856L313.269 371.123L313.647 371.366L315.632 377.12L296.013 410.815C296.013 410.815 263.675 396.55 260.504 417.652C257.334 438.754 259.346 444.517 258.492 455.783C257.639 467.049 258.771 470.308 255.923 470.308C253.076 470.308 251.953 462.907 251.953 462.907C251.953 462.907 251.773 462.569 251.459 461.936C247.228 453.452 218.51 391.168 264.511 348.357C264.511 348.357 285.818 347.005 290.947 323.433C294.486 307.141 306.865 308.545 315.093 311.864C317.767 312.876 320.259 314.288 322.477 316.05C324.472 317.873 326.247 319.908 327.768 322.116C330.112 325.687 331.388 330.167 327.318 334.102Z" fill="#D0D2D5"/>
<path opacity="0.1" d="M313.647 371.366L315.632 377.121L296.013 410.815C296.013 410.815 263.675 396.55 260.504 417.652C257.333 438.754 259.346 444.517 258.492 455.784C257.639 467.05 258.771 470.308 255.923 470.308C253.076 470.308 251.953 462.907 251.953 462.907C251.953 462.907 251.773 462.569 251.459 461.937C250.03 451.398 242.79 389.756 269.038 393.032C269.038 393.032 290.336 402.634 293.741 398.803C296.436 395.77 308.401 378.325 313.269 371.167L313.647 371.366Z" fill="black"/>
<path opacity="0.1" d="M327.768 322.064L314.796 336.285C314.796 336.285 299.732 355.732 296.606 354.909C295.67 354.712 294.717 354.605 293.759 354.588C292.716 354.511 291.717 354.151 290.878 353.548C290.039 352.946 289.394 352.127 289.018 351.185C288.642 350.244 288.55 349.219 288.753 348.229C288.956 347.239 289.446 346.325 290.166 345.593C295.304 340.393 304.772 330.522 305.391 328.33C306.011 326.137 312.039 316.527 315.057 311.821C317.731 312.832 320.223 314.245 322.441 316.007C324.448 317.825 326.235 319.857 327.768 322.064Z" fill="black"/>
<path d="M694.768 526.664C692.567 530.911 681.294 546.839 676.362 553.798L674.054 557.074C674.054 557.074 673.155 562.828 658.433 555.696C643.71 548.564 297.792 407.747 297.792 407.747L295.448 400.953L312.515 376.297L691.651 517.617C691.651 517.617 697.616 521.178 694.768 526.664Z" fill="#454B69"/>
<path opacity="0.1" d="M676.362 553.798L674.054 557.074C674.054 557.074 673.155 562.828 658.433 555.696C643.71 548.564 297.792 407.747 297.792 407.747L295.448 400.953L676.362 553.798Z" fill="black"/>
<path d="M467.71 461.815C464.198 461.26 460.299 461.529 457.569 463.73C455.918 465.079 454.875 466.993 454.658 469.069C454.425 471.469 455.871 474.32 458.368 474.502C458.969 474.509 459.57 474.471 460.165 474.39C461.742 474.383 463.317 474.511 464.872 474.771C467.931 475.049 471.015 474.614 473.864 473.504C476.713 472.395 479.245 470.642 481.247 468.393C483.394 465.793 480.565 464.666 478.031 464.146C474.564 463.436 471.178 462.352 467.71 461.815Z" fill="#FBBEBE"/>
<path d="M527.787 540.079L530.015 555.349C530.298 556.925 530.413 558.525 530.356 560.124C530.096 563.721 528.11 566.944 526.682 570.272C525.254 573.6 524.382 577.586 526.278 580.672C526.862 581.634 527.679 582.457 528.209 583.453C528.883 584.995 529.189 586.662 529.107 588.332L529.718 609.998C536.652 610.454 543.612 610.417 550.54 609.885C550.811 609.898 551.079 609.818 551.295 609.66C551.478 609.436 551.57 609.156 551.555 608.871C551.861 603.802 550.945 598.723 551.241 593.653C551.349 591.799 551.618 589.953 551.654 588.09C551.762 580.542 547.899 573.149 549.067 565.688C549.434 563.805 549.914 561.944 550.504 560.115C554.196 547.116 553.415 533.458 552.597 520.034C552.611 519.818 552.548 519.604 552.418 519.428C552.285 519.3 552.116 519.212 551.933 519.176C548.003 518.039 543.847 517.831 539.816 518.57C535.785 519.309 531.998 520.974 528.775 523.423C527.796 524.185 525.326 524.922 524.679 525.832C523.781 527.097 524.957 528.363 525.478 529.706C526.632 533.073 527.406 536.551 527.787 540.079Z" fill="#3F3D56"/>
<path opacity="0.1" d="M527.787 540.079L530.015 555.349C530.298 556.925 530.413 558.525 530.356 560.124C530.096 563.721 528.11 566.944 526.682 570.272C525.254 573.6 524.382 577.586 526.278 580.672C526.862 581.634 527.679 582.457 528.209 583.453C528.883 584.995 529.189 586.662 529.107 588.332L529.718 609.998C536.652 610.454 543.612 610.417 550.54 609.885C550.811 609.898 551.079 609.818 551.295 609.66C551.478 609.436 551.57 609.156 551.555 608.871C551.861 603.802 550.945 598.723 551.241 593.653C551.349 591.799 551.618 589.953 551.654 588.09C551.762 580.542 547.899 573.149 549.067 565.688C549.434 563.805 549.914 561.944 550.504 560.115C554.196 547.116 553.415 533.458 552.597 520.034C552.611 519.818 552.548 519.604 552.418 519.428C552.285 519.3 552.116 519.212 551.933 519.176C548.003 518.039 543.847 517.831 539.816 518.57C535.785 519.309 531.998 520.974 528.775 523.423C527.796 524.185 525.326 524.922 524.679 525.832C523.781 527.097 524.957 528.363 525.478 529.706C526.632 533.073 527.406 536.551 527.787 540.079Z" fill="black"/>
<path d="M569.44 535.478C568.389 537.583 566.979 539.542 566.35 541.804C564.715 547.775 568.946 553.937 568.443 560.055C568.281 561.987 567.662 563.868 567.617 565.801C567.572 567.733 568.308 569.882 570.087 570.775C571.282 571.364 572.782 571.304 573.905 571.98C575.8 573.097 576.016 575.637 575.827 577.769C575.638 579.9 575.324 582.284 576.725 583.948C577.794 585.239 579.627 585.741 580.776 586.963C581.461 587.84 582.042 588.788 582.51 589.789C584.226 592.683 587.361 594.451 589.93 596.721C592.499 598.992 594.673 602.32 593.523 605.466C592.679 607.771 590.307 609.192 588.026 610.275C583.863 612.26 579.469 613.759 574.938 614.738C574.451 614.88 573.937 614.907 573.438 614.816C572.932 614.638 572.481 614.34 572.126 613.95C569.476 611.445 566.736 608.819 565.515 605.448C565.297 604.631 564.959 603.849 564.509 603.126C563.107 601.228 560.152 601.297 558.158 599.989C555.822 598.455 555.256 595.413 553.729 593.116C552.202 590.82 549.966 589.451 548.34 587.431C545.591 584.069 544.917 579.58 542.95 575.741C542.115 574.111 541.046 572.586 540.381 570.888C539.71 568.852 539.297 566.745 539.15 564.613C537.884 554.491 534.659 544.3 536.689 534.282C537.138 532.08 537.83 529.949 538.117 527.678C538.611 523.752 537.83 519.731 538.432 515.814C538.446 515.322 538.576 514.84 538.811 514.403C539.046 513.967 539.38 513.587 539.788 513.292C540.273 513.082 540.801 512.978 541.333 512.989C546.658 512.714 551.997 512.83 557.305 513.336C559.999 513.587 563.018 514.115 564.634 516.239C566.009 518.059 565.937 520.494 566.377 522.704C566.925 525.425 568.353 526.907 569.853 529.039C571.354 531.171 570.545 533.276 569.44 535.478Z" fill="#3F3D56"/>
<path d="M548.717 605.899C550.136 605.899 551.708 605.812 552.804 606.679C554.17 607.762 554.187 609.747 553.972 611.437C553.343 616.186 551.735 620.753 550.127 625.302L545.348 638.83C544.592 640.761 544.032 642.758 543.678 644.793C543.21 648.259 543.929 651.726 544.019 655.192C544.019 656.925 543.902 658.849 542.779 660.244C540.749 662.766 536.788 662.472 533.527 661.978L517.619 659.378C516.276 659.205 514.957 658.895 513.684 658.451C512.356 657.859 511.08 657.167 509.866 656.379C506.718 654.644 503.411 653.193 499.985 652.046C498.494 651.509 496.823 650.824 496.284 649.377C495.647 647.644 497.066 645.737 498.827 645.044C500.587 644.351 502.554 644.524 504.459 644.576C509.142 644.72 513.817 644.111 518.292 642.773C519.64 642.455 520.89 641.831 521.939 640.954C523.005 639.798 523.731 638.389 524.041 636.872C525.397 632.355 526.205 627.702 526.449 623.006C526.637 619.539 526.511 616.073 526.655 612.606C526.745 610.553 526.538 603.94 528.407 602.528C529.835 601.47 535.71 604.391 537.641 604.816C541.272 605.618 544.993 605.982 548.717 605.899Z" fill="#404040"/>
<path d="M601.122 615.536C602.676 620.501 602.919 625.753 603.925 630.857C604.931 635.962 606.71 641.17 610.635 644.723C611.399 645.308 612.058 646.011 612.584 646.803C612.916 647.545 613.028 648.361 612.909 649.161C612.791 649.961 612.445 650.713 611.911 651.336C610.826 652.568 609.482 653.564 607.967 654.256C597.826 659.594 586.409 662.29 574.902 663.624C572.868 663.992 570.776 663.918 568.775 663.408C566.817 662.766 565.084 661.068 565.119 659.075C565.101 658.528 565.293 657.993 565.658 657.575C566.008 657.267 566.421 657.034 566.871 656.891C571.111 655.209 575.414 653.381 578.692 650.278C581.971 647.176 584.028 642.479 582.762 638.267C582.012 636.294 580.994 634.426 579.734 632.712C578.092 629.987 576.593 627.185 575.243 624.314L571.291 616.316C570.132 613.976 568.964 611.567 568.766 608.984C573.732 609.199 578.69 608.432 583.337 606.731C585.506 605.878 587.526 604.708 589.328 603.264C590.855 602.034 592.247 599.737 594.304 601.34C595.957 602.623 596.999 606.237 597.969 608.065C599.23 610.468 600.284 612.967 601.122 615.536Z" fill="#404040"/>
<path d="M543.201 416.916C543.597 420.243 546.938 422.436 550.127 423.753L529.943 429.967C531.245 427.558 530.194 424.611 528.901 422.167C527.847 420.232 526.646 418.376 525.308 416.612C525.11 416.344 524.886 416.006 525.029 415.694C525.157 415.49 525.359 415.339 525.595 415.269C529.745 413.484 534.021 411.638 538.557 410.988C539.869 410.806 542.348 410.303 543.327 411.586C544.306 412.868 543.013 415.382 543.201 416.916Z" fill="#FBBEBE"/>
<path opacity="0.1" d="M543.201 416.916C543.597 420.243 546.938 422.436 550.127 423.753L529.943 429.967C531.245 427.558 530.194 424.611 528.901 422.167C527.847 420.232 526.646 418.376 525.308 416.612C525.11 416.344 524.886 416.006 525.029 415.694C525.157 415.49 525.359 415.339 525.595 415.269C529.745 413.484 534.021 411.638 538.557 410.988C539.869 410.806 542.348 410.303 543.327 411.586C544.306 412.868 543.013 415.382 543.201 416.916Z" fill="black"/>
<path d="M531.47 419.611C540.211 419.611 547.298 412.774 547.298 404.341C547.298 395.908 540.211 389.071 531.47 389.071C522.729 389.071 515.642 395.908 515.642 404.341C515.642 412.774 522.729 419.611 531.47 419.611Z" fill="#FBBEBE"/>
<path d="M517.753 530.001C519.289 531.777 521.993 532.124 524.356 531.734C529.88 530.867 534.398 526.941 539.806 525.529C546.435 523.796 553.451 526.023 559.712 528.753C565.973 531.482 572.198 534.819 579.043 535.287C572.854 521.976 576.393 505.961 570.473 492.537C569.027 489.252 567.006 486.089 566.682 482.536C566.278 478.125 568.56 473.87 568.91 469.485C569.234 465.576 568.012 461.685 566.844 457.959C565.401 453.383 563.958 448.807 562.514 444.231C560.898 439.11 559.236 433.901 556.101 429.499C554.942 427.878 554.592 424.594 552.831 423.615C548.986 421.474 543.157 424.169 538.989 424.317C534.821 424.464 531.021 427.324 528.586 430.556C526.008 433.971 524.544 438.035 523.197 442.056C521.051 448.044 519.449 454.199 518.409 460.454C518.274 461.39 518.157 462.326 518.068 463.271C517.169 472.171 518.481 481.123 518.553 490.067V490.127C518.643 501.471 516.756 512.746 516.406 524.082C516.37 526.153 516.424 528.415 517.753 530.001Z" fill="#2F2E41"/>
<path opacity="0.1" d="M518.58 490.075C521.679 489.321 524.481 487.389 526.889 485.274C528.974 483.474 530.826 481.437 532.404 479.208C534.391 476.211 535.987 472.989 537.156 469.614C540.482 460.59 542.595 451.192 543.444 441.649C543.677 439.049 543.749 436.258 542.141 434.196C541.239 433.079 539.971 432.289 538.543 431.955C537.116 431.622 535.614 431.764 534.282 432.359C532.162 433.355 530.787 435.374 529.512 437.307C526.987 441.137 524.445 445.02 522.819 449.284C522.101 451.173 521.571 453.114 520.87 455.012C520.158 456.884 519.336 458.715 518.409 460.498C518.274 461.434 518.157 462.37 518.068 463.314C517.232 472.214 518.508 481.132 518.58 490.075Z" fill="black"/>
<path d="M542.097 432.524C543.705 434.586 543.633 437.403 543.408 439.968C542.561 449.511 540.448 458.909 537.12 467.933C535.962 471.336 534.365 474.585 532.368 477.605C530.787 479.832 528.935 481.868 526.853 483.671C523.799 486.358 520.08 488.758 515.939 488.793C513.608 488.687 511.312 488.204 509.148 487.363L475.418 476.288C475.076 474.433 476.433 472.267 477.07 470.481L478.867 465.342C479.379 463.921 479.972 462.387 481.31 461.616C482.649 460.845 484.769 461.902 485.882 462.76C486.996 463.618 487.841 464.744 488.937 465.62C491.012 467.284 493.751 467.908 496.392 468.479L503.965 470.117C506.71 470.843 509.544 471.207 512.391 471.201C514.502 464.978 518.517 459.501 520.79 453.331C521.49 451.442 522.02 449.492 522.748 447.603C524.365 443.339 526.916 439.465 529.44 435.626C530.707 433.702 532.081 431.683 534.21 430.678C535.546 430.076 537.055 429.93 538.489 430.266C539.922 430.601 541.195 431.398 542.097 432.524Z" fill="#2F2E41"/>
<path d="M536.518 407.79C536.398 406.786 536.075 405.814 535.566 404.93C535.302 404.488 534.898 404.138 534.413 403.933C533.928 403.727 533.388 403.676 532.871 403.786C531.29 404.263 530.76 406.62 529.108 406.698C527.994 406.75 527.194 405.658 526.844 404.636C526.494 403.613 526.305 402.443 525.47 401.724C524.888 401.304 524.22 401.009 523.511 400.857C519.676 399.687 515.714 397.529 514.439 393.846C514.139 393.099 514.067 392.284 514.232 391.498C514.816 389.167 517.825 388.465 520.116 387.624C522.406 386.783 524.607 385.345 526.853 384.253C529.099 383.161 531.704 382.39 534.174 382.944C535.427 383.325 536.66 383.767 537.866 384.27C541.585 385.518 546.139 384.938 549.022 387.529C550.282 388.814 551.206 390.371 551.717 392.07C553.729 397.46 555.005 403.856 551.672 408.588C549.615 411.508 547.621 414.844 543.669 415.2C539.069 415.572 537.246 411.551 536.518 407.79Z" fill="#2F2E41"/>
<g opacity="0.1">
<path d="M529.494 402.798C529.143 401.776 528.955 400.606 528.128 399.887C527.547 399.467 526.879 399.171 526.17 399.02C522.325 397.85 518.373 395.692 517.089 392.009C516.796 391.259 516.727 390.446 516.891 389.66C516.979 389.29 517.141 388.94 517.367 388.629C515.903 389.244 514.627 390.059 514.268 391.498C514.103 392.283 514.174 393.099 514.475 393.846C515.75 397.529 519.712 399.687 523.547 400.857C524.256 401.009 524.924 401.304 525.505 401.724C526.341 402.443 526.52 403.604 526.88 404.636C527.239 405.667 528.03 406.75 529.143 406.698C530.257 406.646 530.796 405.667 531.506 404.844C530.527 404.722 529.817 403.752 529.494 402.798Z" fill="black"/>
<path d="M546.31 413.336C541.692 413.744 539.869 409.688 539.123 405.953C539.025 404.951 538.719 403.979 538.225 403.093C537.959 402.651 537.555 402.303 537.071 402.097C536.587 401.892 536.047 401.84 535.53 401.949C534.711 402.332 534.022 402.934 533.545 403.682C533.957 403.72 534.355 403.85 534.707 404.06C535.059 404.271 535.356 404.556 535.575 404.896C536.084 405.779 536.408 406.751 536.527 407.755C537.255 411.49 539.078 415.555 543.714 415.139C545.546 414.944 547.237 414.097 548.456 412.764C547.779 413.069 547.053 413.263 546.31 413.336Z" fill="black"/>
</g>
<path d="M731.328 574.545C747.347 574.545 760.333 572.135 760.333 569.163C760.333 566.191 747.347 563.781 731.328 563.781C715.309 563.781 702.323 566.191 702.323 569.163C702.323 572.135 715.309 574.545 731.328 574.545Z" fill="#404040"/>
<path d="M730.843 571.139C732.708 571.139 734.22 569.23 734.22 566.875C734.22 564.52 732.708 562.611 730.843 562.611C728.978 562.611 727.465 564.52 727.465 566.875C727.465 569.23 728.978 571.139 730.843 571.139Z" fill="#3F3D56"/>
<path d="M730.843 565.922C732.708 565.922 734.22 564.013 734.22 561.658C734.22 559.303 732.708 557.394 730.843 557.394C728.978 557.394 727.465 559.303 727.465 561.658C727.465 564.013 728.978 565.922 730.843 565.922Z" fill="#3F3D56"/>
<path d="M730.843 560.714C732.708 560.714 734.22 558.805 734.22 556.45C734.22 554.095 732.708 552.186 730.843 552.186C728.978 552.186 727.465 554.095 727.465 556.45C727.465 558.805 728.978 560.714 730.843 560.714Z" fill="#3F3D56"/>
<path d="M730.843 555.496C732.708 555.496 734.22 553.587 734.22 551.233C734.22 548.878 732.708 546.969 730.843 546.969C728.978 546.969 727.465 548.878 727.465 551.233C727.465 553.587 728.978 555.496 730.843 555.496Z" fill="#3F3D56"/>
<path d="M730.843 550.279C732.708 550.279 734.22 548.371 734.22 546.016C734.22 543.661 732.708 541.752 730.843 541.752C728.978 541.752 727.465 543.661 727.465 546.016C727.465 548.371 728.978 550.279 730.843 550.279Z" fill="#3F3D56"/>
<path d="M730.843 545.071C732.708 545.071 734.22 543.162 734.22 540.807C734.22 538.452 732.708 536.543 730.843 536.543C728.978 536.543 727.465 538.452 727.465 540.807C727.465 543.162 728.978 545.071 730.843 545.071Z" fill="#3F3D56"/>
<path d="M730.843 539.854C732.708 539.854 734.22 537.945 734.22 535.59C734.22 533.235 732.708 531.326 730.843 531.326C728.978 531.326 727.465 533.235 727.465 535.59C727.465 537.945 728.978 539.854 730.843 539.854Z" fill="#3F3D56"/>
<path d="M743.481 499.946C743.942 499.379 744.363 498.783 744.739 498.161L735.864 496.757L745.467 496.818C746.383 494.884 746.883 492.79 746.935 490.665C746.988 488.539 746.592 486.425 745.772 484.451L732.891 490.899L744.766 482.475C743.652 480.625 742.155 479.015 740.368 477.747C738.581 476.478 736.543 475.578 734.38 475.102C732.218 474.626 729.977 474.585 727.796 474.98C725.616 475.376 723.544 476.2 721.708 477.401C719.872 478.603 718.313 480.156 717.126 481.964C715.939 483.772 715.15 485.796 714.808 487.911C714.467 490.025 714.58 492.185 715.141 494.255C715.702 496.326 716.699 498.263 718.069 499.946C717.348 500.826 716.727 501.779 716.219 502.789L727.744 508.569L715.455 504.591C714.597 507.047 714.387 509.671 714.843 512.225C715.299 514.779 716.408 517.183 718.069 519.22C716.195 521.521 715.03 524.285 714.707 527.195C714.384 530.105 714.916 533.043 716.242 535.675C717.569 538.308 719.636 540.527 722.207 542.079C724.779 543.632 727.751 544.455 730.784 544.455C733.818 544.455 736.79 543.632 739.362 542.079C741.933 540.527 744 538.308 745.326 535.675C746.652 533.043 747.184 530.105 746.861 527.195C746.538 524.285 745.373 521.521 743.499 519.22C745.744 516.469 746.964 513.07 746.964 509.57C746.964 506.069 745.744 502.67 743.499 499.92L743.481 499.946Z" fill="#F688B6"/>
<path opacity="0.1" d="M714.584 509.566C714.582 513.071 715.811 516.474 718.069 519.22C716.195 521.521 715.03 524.285 714.707 527.195C714.384 530.105 714.916 533.044 716.243 535.676C717.569 538.308 719.636 540.527 722.207 542.079C724.779 543.632 727.751 544.455 730.784 544.455C733.818 544.455 736.79 543.632 739.362 542.079C741.933 540.527 744 538.308 745.326 535.676C746.653 533.044 747.185 530.105 746.862 527.195C746.538 524.285 745.373 521.521 743.5 519.22C745.646 516.559 714.584 507.815 714.584 509.566Z" fill="black"/>
<path d="M134.252 681.849C157.315 681.849 176.012 678.38 176.012 674.102C176.012 669.823 157.315 666.354 134.252 666.354C111.188 666.354 92.4906 669.823 92.4906 674.102C92.4906 678.38 111.188 681.849 134.252 681.849Z" fill="#404040"/>
<path d="M133.551 676.953C136.235 676.953 138.411 674.202 138.411 670.808C138.411 667.415 136.235 664.664 133.551 664.664C130.867 664.664 128.691 667.415 128.691 670.808C128.691 674.202 130.867 676.953 133.551 676.953Z" fill="#3F3D56"/>
<path d="M133.551 669.448C136.235 669.448 138.411 666.697 138.411 663.304C138.411 659.91 136.235 657.159 133.551 657.159C130.867 657.159 128.691 659.91 128.691 663.304C128.691 666.697 130.867 669.448 133.551 669.448Z" fill="#3F3D56"/>
<path d="M133.551 661.943C136.235 661.943 138.411 659.192 138.411 655.799C138.411 652.405 136.235 649.654 133.551 649.654C130.867 649.654 128.691 652.405 128.691 655.799C128.691 659.192 130.867 661.943 133.551 661.943Z" fill="#3F3D56"/>
<path d="M133.551 654.438C136.235 654.438 138.411 651.687 138.411 648.294C138.411 644.9 136.235 642.149 133.551 642.149C130.867 642.149 128.691 644.9 128.691 648.294C128.691 651.687 130.867 654.438 133.551 654.438Z" fill="#3F3D56"/>
<path d="M133.551 646.933C136.235 646.933 138.411 644.182 138.411 640.789C138.411 637.395 136.235 634.645 133.551 634.645C130.867 634.645 128.691 637.395 128.691 640.789C128.691 644.182 130.867 646.933 133.551 646.933Z" fill="#3F3D56"/>
<path d="M133.551 639.419C136.235 639.419 138.411 636.669 138.411 633.275C138.411 629.882 136.235 627.131 133.551 627.131C130.867 627.131 128.691 629.882 128.691 633.275C128.691 636.669 130.867 639.419 133.551 639.419Z" fill="#3F3D56"/>
<path d="M133.551 631.915C136.235 631.915 138.411 629.164 138.411 625.771C138.411 622.377 136.235 619.626 133.551 619.626C130.867 619.626 128.691 622.377 128.691 625.771C128.691 629.164 130.867 631.915 133.551 631.915Z" fill="#3F3D56"/>
<path d="M151.75 574.415C152.408 573.587 153.008 572.719 153.546 571.815L140.773 569.787L154.588 569.891C155.913 567.107 156.635 564.092 156.71 561.03C156.786 557.968 156.214 554.923 155.029 552.082L136.506 561.389L153.573 549.257C151.975 546.581 149.823 544.253 147.25 542.416C144.677 540.579 141.74 539.273 138.621 538.58C135.502 537.887 132.268 537.821 129.122 538.387C125.976 538.954 122.984 540.139 120.334 541.87C117.683 543.602 115.431 545.841 113.718 548.45C112.005 551.058 110.867 553.979 110.376 557.03C109.885 560.081 110.051 563.197 110.864 566.184C111.677 569.171 113.119 571.964 115.1 574.389C114.051 575.654 113.148 577.026 112.405 578.479L128.997 586.799L111.309 581.07C110.07 584.622 109.771 588.416 110.439 592.108C111.107 595.799 112.722 599.271 115.136 602.207C112.433 605.522 110.752 609.503 110.284 613.696C109.817 617.889 110.581 622.124 112.491 625.918C114.401 629.711 117.378 632.91 121.084 635.147C124.789 637.385 129.072 638.572 133.443 638.572C137.814 638.572 142.097 637.385 145.802 635.147C149.508 632.91 152.485 629.711 154.395 625.918C156.305 622.124 157.069 617.889 156.602 613.696C156.134 609.503 154.453 605.522 151.75 602.207C154.98 598.247 156.736 593.354 156.736 588.315C156.736 583.276 154.98 578.383 151.75 574.423V574.415Z" fill="#F688B6"/>
<path opacity="0.1" d="M110.151 588.341C110.151 593.372 111.908 598.256 115.136 602.207C112.433 605.522 110.752 609.503 110.284 613.696C109.817 617.889 110.581 622.124 112.491 625.918C114.401 629.711 117.378 632.91 121.084 635.147C124.789 637.385 129.072 638.572 133.443 638.572C137.814 638.572 142.097 637.385 145.802 635.147C149.508 632.91 152.485 629.711 154.395 625.918C156.305 622.124 157.069 617.889 156.602 613.696C156.134 609.503 154.453 605.522 151.75 602.207C154.849 598.377 110.151 585.785 110.151 588.341Z" fill="black"/>
</g>
<defs>
<linearGradient id="paint0_linear_11_42" x1="541.587" y1="664.982" x2="530.519" y2="380.593" gradientUnits="userSpaceOnUse">
<stop stop-color="#808080" stop-opacity="0.25"/>
<stop offset="0.54" stop-color="#808080" stop-opacity="0.12"/>
<stop offset="1" stop-color="#808080" stop-opacity="0.1"/>
</linearGradient>
<clipPath id="clip0_11_42">
<rect width="918.669" height="680.997" fill="white" transform="translate(0.929077 0.852539)"/>
</clipPath>
</defs>
</svg>
